<svg id="Слой_1" data-name="Слой 1" xmlns="http://www.w3.org/2000/svg" xmlns:xlink="http://www.w3.org/1999/xlink" viewBox="0 0 1920 1137.12"><defs><style>.cls-1{fill:url(#Безымянный_градиент_23);}.cls-2{fill:url(#Безымянный_градиент_23-2);}.cls-3{fill:url(#Безымянный_градиент_23-3);}.cls-4{fill:url(#Безымянный_градиент_23-4);}.cls-5{fill:url(#Безымянный_градиент_102);}.cls-6{fill:url(#Безымянный_градиент_86);}.cls-7{fill:url(#Безымянный_градиент_86-2);}.cls-8{fill:url(#Безымянный_градиент_102-2);}.cls-9{fill:url(#Безымянный_градиент_23-5);}.cls-10{fill:url(#Безымянный_градиент_24);}.cls-11{fill:url(#Безымянный_градиент_23-6);}.cls-12{fill:#050606;}</style><linearGradient id="Безымянный_градиент_23" x1="556.43" y1="297.26" x2="971.49" y2="680.99" gradientUnits="userSpaceOnUse"><stop offset="0" stop-color="#212121"/><stop offset="1" stop-color="#050606"/></linearGradient><linearGradient id="Безымянный_градиент_23-2" x1="832.9" y1="217.97" x2="1287.11" y2="262.35" xlink:href="#Безымянный_градиент_23"/><linearGradient id="Безымянный_градиент_23-3" x1="843.97" y1="104.66" x2="1298.18" y2="149.03" xlink:href="#Безымянный_градиент_23"/><linearGradient id="Безымянный_градиент_23-4" x1="691.86" y1="150.77" x2="1106.92" y2="534.5" xlink:href="#Безымянный_градиент_23"/><linearGradient id="Безымянный_градиент_102" x1="556.43" y1="282.76" x2="971.49" y2="666.49" gradientUnits="userSpaceOnUse"><stop offset="0" stop-color="#ecc729"/><stop offset="0.16" stop-color="#f5ee88"/><stop offset="0.3" stop-color="#ecc729"/><stop offset="0.6" stop-color="#e69f23"/><stop offset="1" stop-color="#cb890c"/></linearGradient><linearGradient id="Безымянный_градиент_86" x1="832.9" y1="203.47" x2="1287.11" y2="247.84" gradientUnits="userSpaceOnUse"><stop offset="0" stop-color="#ecc729"/><stop offset="0.5" stop-color="#e69f23"/><stop offset="1" stop-color="#cb890c"/></linearGradient><linearGradient id="Безымянный_градиент_86-2" x1="843.97" y1="90.15" x2="1298.18" y2="134.53" xlink:href="#Безымянный_градиент_86"/><linearGradient id="Безымянный_градиент_102-2" x1="691.86" y1="136.26" x2="1106.92" y2="520" xlink:href="#Безымянный_градиент_102"/><linearGradient id="Безымянный_градиент_23-5" x1="422.37" y1="321.74" x2="1017.43" y2="725.68" xlink:href="#Безымянный_градиент_23"/><linearGradient id="Безымянный_градиент_24" x1="628.12" y1="18.65" x2="1223.17" y2="422.6" xlink:href="#Безымянный_градиент_23"/><linearGradient id="Безымянный_градиент_23-6" x1="720.57" y1="-117.55" x2="1315.63" y2="286.4" xlink:href="#Безымянный_градиент_23"/></defs><title>US-logo-color-vert</title><path d="M1294.06,53.88A58.68,58.68,0,0,1,1296,75.63h32.51V808.21H595.89V75.63h28.43a42.46,42.46,0,0,1-2.78-21.75H574.13V830h776.1V53.88Z"/><path class="cls-1" d="M1246.14,704.09c-2.47,11-6,22.11-11.31,31.76A140.41,140.41,0,0,1,1217,762.1c-13.27,15.66-28.42,27.26-43.43,37.27-30.6,19.65-63.16,32.92-96.37,41.84-33.21,8.7-67,13.92-101.52,14.14A391.84,391.84,0,0,1,874,841.93l-24.37-7.54c-8-2.9-15.8-6.31-23.63-9.42s-15.38-7.11-22.92-10.88l-11.24-5.73c-3.7-2-7.25-4.35-10.8-6.53-7.11-4.56-14.51-8.55-21.18-13.63l-20.23-14.86c-12.61-11-25.3-21.68-36.54-34-45.83-47.79-77-108.33-88.69-170.77A384.14,384.14,0,0,0,738.12,721.35a221,221,0,0,0,42,50.46c1.3,1.24,2.68,2.54,4.06,3.77,45.68,41.48,108.47,56.78,171.2,56.78,32.19,0,64.31-5.15,94-16.39,34.59-12.83,65.92-33.86,90.14-64a240.33,240.33,0,0,0,28-44.09l.21-.43a48.51,48.51,0,0,0,6.31-13.64,20.08,20.08,0,0,0,1-4c1.3-8.34,1.09-16.1-2.83-24.88-3.55-8.7-10.51-17.91-19.22-26.39-2-2-4-3.84-6.16-5.66-.87-.79-1.74-1.52-2.61-2.24l-.07-.08-.07-.07c-.66-.51-1.24-1-1.89-1.45s-1.23-1-2-1.52a183.42,183.42,0,0,0-18-12A311.73,311.73,0,0,0,1084,597.06c-26.9-11.53-55.76-20-85.13-28-29.58-7.61-60-14.28-90.85-21.17-24.8-5.66-50-11.39-75-18.13-3.56-.94-7.18-2-10.74-2.9-.79-.22-1.52-.44-2.32-.65-4.93-1.45-9.93-2.9-14.86-4.43-4.64-1.45-9.28-2.9-13.92-4.42s-9.21-3.12-13.78-4.79-9-3.19-13.41-4.93a6,6,0,0,1-.8-.29c-.66-.29-1.31-.5-2-.79-2.76-1.09-5.51-2.18-8.27-3.34-.87-.29-1.74-.65-2.61-1a4,4,0,0,0-.8-.36c-.21-.07-.43-.22-.65-.29-1.88-.87-3.84-1.67-5.8-2.54s-3.84-1.66-5.73-2.53c-.14,0-.21-.08-.36-.15a4.58,4.58,0,0,0-.87-.36c-4.42-2.1-8.85-4.21-13.27-6.38-6.89-3.63-13.7-7.47-20.38-11.6-2.24-1.38-4.42-2.83-6.59-4.28a182,182,0,0,1-15.45-11.46,163.33,163.33,0,0,1-34.59-37.13c-9.42-14-16.68-29.44-20.37-45.68a127.57,127.57,0,0,1-2.76-24.29c-.36-8-.58-16-.72-23.86,2.17,7.69,4.27,15.3,6.3,22.92A112.14,112.14,0,0,0,635.81,376a124.17,124.17,0,0,0,25.52,36.48A155.93,155.93,0,0,0,696.5,439,219.92,219.92,0,0,0,736.89,457c28.2,9.64,58.51,16,88.61,21.46,30.38,5.22,61.2,9.28,92.52,13.49,62.36,8.41,127.33,17.62,191.07,41.19a337.87,337.87,0,0,1,47.57,21.17c15.66,8.7,31.54,19.22,45.61,32.41s27.19,29.3,36.11,49.67C1247.66,656.37,1250.49,681.54,1246.14,704.09Z"/><path class="cls-2" d="M1278.05,321.59a393.6,393.6,0,0,0-67.51-90c.43-13.78,1-25.74,1.74-36.62v-.07a335.8,335.8,0,0,1,27.84,38.72c4.5,6.74,8.05,14.07,12,21,3.55,7.25,7.25,14.43,10.44,21.75A310.36,310.36,0,0,1,1278.05,321.59Z"/><path class="cls-3" d="M904,127a381.88,381.88,0,0,0-64.69,14.29c8.85-30.31,29.44-35.46,76-40.61V62.72a390,390,0,0,1,84.33,7.69,384.66,384.66,0,0,1,54.67,15.29v14.94c19.29,1.31,35.24,3.19,48.44,6.38h.07A397.41,397.41,0,0,1,1138,128c1.82,1.23,3.56,2.47,5.3,3.77,6.23,9.64,9.71,22.19,11,38.87.29,5.15.58,10.37.94,15.95a362.79,362.79,0,0,0-79.33-39.88,376.45,376.45,0,0,0-85.34-20,337.58,337.58,0,0,0-43.44-2.32C932.67,124.21,918.24,125.44,904,127Z"/><path class="cls-4" d="M1273.91,598.58a92.89,92.89,0,0,0-6.31-45.17,113.9,113.9,0,0,0-23.49-37.35c-20.16-21.17-46.55-35.24-74.4-45.61-56.85-20.59-117.32-31.68-178.45-40.39q-23.06-3.26-46.19-6.16c-15.52-2-31.69-4.28-47.64-7-32.12-5.29-64.61-12.91-96.73-24.29a345.81,345.81,0,0,1-47.35-20.6c-15.45-8.19-30.31-17-45-28.35s-28.79-25.16-40.25-42.42c-11.53-17.62-19.65-38.07-21.6-60.76a108.3,108.3,0,0,1,2.82-35,112.17,112.17,0,0,1,13.49-31.76,142.23,142.23,0,0,1,27-31.62,153.65,153.65,0,0,1,4.43,27c.43,4.71.72,9.86.94,15.37,0,.07.07.07,0,.14,6.09,30,18.85,68.6,45.9,93.33,3.19,3,7.83,6.81,13.71,11.24.07.07.21.14.29.21,1,.8,2,1.53,3.11,2.32a212.59,212.59,0,0,0,18.49,12.48c2.76,1.66,5.59,3.4,8.56,5.14.51.29.94.58,1.45.88,1,.57,2,1.16,3.12,1.66,1.52.87,3,1.67,4.64,2.54.72.44,1.52.8,2.25,1.16,9.21,4.64,18.71,8.85,28.42,12.91,1.38.58,2.76,1.09,4.06,1.59s2.61,1,3.85,1.45c24.43,9.36,50.32,16.54,76.93,22.84,14.87,3.49,29.66,6.46,45.18,9.65s31,6.6,46.62,10.15c53.23,12.4,106.81,27.77,157.5,51.41,8.55,4,17,8.2,25.38,12.69,1.81,1,3.55,2,5.36,3.05s3.63,2.1,5.37,3.19,3.19,1.88,4.78,2.9c1.17.72,2.4,1.52,3.56,2.25q2.71,1.74,5.44,3.69c19.72,13.49,37.85,29.95,50.9,50.54a128,128,0,0,1,18.13,46.63C1280.66,566.9,1279.71,583.79,1273.91,598.58Z"/><path class="cls-5" d="M1246.14,689.59c-2.47,11-6,22.11-11.31,31.76A140.74,140.74,0,0,1,1217,747.6c-13.27,15.66-28.42,27.26-43.43,37.27-30.6,19.65-63.16,32.92-96.37,41.84-33.21,8.7-67,13.92-101.52,14.14A391.84,391.84,0,0,1,874,827.43l-24.37-7.54c-8-2.9-15.8-6.31-23.63-9.43s-15.38-7.1-22.92-10.87l-11.24-5.73c-3.7-2-7.25-4.35-10.8-6.53-7.11-4.57-14.51-8.55-21.18-13.63l-20.23-14.87c-12.61-10.94-25.3-21.68-36.54-34-45.83-47.79-77-108.34-88.69-170.77A384,384,0,0,0,738.12,706.84a220.88,220.88,0,0,0,42,50.47c1.3,1.23,2.68,2.54,4.06,3.77,45.68,41.48,108.47,56.78,171.2,56.78,32.19,0,64.31-5.15,94-16.39,34.59-12.83,65.92-33.86,90.14-64a240.67,240.67,0,0,0,28-44.09l.21-.44a48.33,48.33,0,0,0,6.31-13.63,20,20,0,0,0,1-4c1.3-8.34,1.09-16.09-2.83-24.87-3.55-8.7-10.51-17.91-19.22-26.39-2-2-4-3.85-6.16-5.66-.87-.8-1.74-1.52-2.61-2.25l-.07-.07-.07-.07c-.66-.51-1.24-1-1.89-1.45s-1.23-1-2-1.52a183.42,183.42,0,0,0-18-12A311.73,311.73,0,0,0,1084,582.56c-26.9-11.53-55.76-20-85.13-28-29.58-7.62-60-14.29-90.85-21.18-24.8-5.65-50-11.38-75-18.12-3.56-.95-7.18-2-10.74-2.9l-2.32-.66c-4.93-1.45-9.93-2.9-14.86-4.42-4.64-1.45-9.28-2.9-13.92-4.42s-9.21-3.12-13.78-4.79-9-3.19-13.41-4.93a7.83,7.83,0,0,1-.8-.29c-.66-.29-1.31-.51-2-.8-2.76-1.09-5.51-2.17-8.27-3.33-.87-.29-1.74-.66-2.61-1a4,4,0,0,0-.8-.36c-.21-.07-.43-.22-.65-.29-1.88-.87-3.84-1.67-5.8-2.54s-3.84-1.67-5.73-2.54c-.14,0-.21-.07-.36-.14a4,4,0,0,0-.87-.36c-4.42-2.11-8.85-4.21-13.27-6.39-6.89-3.62-13.7-7.46-20.38-11.6-2.24-1.37-4.42-2.83-6.59-4.28a179.74,179.74,0,0,1-15.45-11.45,163.54,163.54,0,0,1-34.59-37.13c-9.42-14-16.68-29.44-20.37-45.68a127.57,127.57,0,0,1-2.76-24.29c-.36-8-.58-16-.72-23.86,2.17,7.69,4.27,15.3,6.3,22.91a112.24,112.24,0,0,0,7.55,21.83A124.12,124.12,0,0,0,661.33,398a155.67,155.67,0,0,0,35.17,26.47,219.92,219.92,0,0,0,40.39,18.06c28.2,9.64,58.51,16,88.61,21.46,30.38,5.22,61.2,9.28,92.52,13.49,62.36,8.41,127.33,17.62,191.07,41.18a338,338,0,0,1,47.57,21.18c15.66,8.7,31.54,19.21,45.61,32.41s27.19,29.3,36.11,49.67C1247.66,641.87,1250.49,667,1246.14,689.59Z"/><path class="cls-6" d="M1278.05,307.08a393.76,393.76,0,0,0-67.51-90c.43-13.78,1-25.74,1.74-36.62v-.07a334.94,334.94,0,0,1,27.84,38.72c4.5,6.74,8.05,14.06,12,21,3.55,7.25,7.25,14.43,10.44,21.75A310.64,310.64,0,0,1,1278.05,307.08Z"/><path class="cls-7" d="M904,112.46a381.88,381.88,0,0,0-64.69,14.29c8.85-30.31,29.44-35.46,76-40.61V48.22A390.65,390.65,0,0,1,999.6,55.9a384.69,384.69,0,0,1,54.67,15.3V86.14c19.29,1.31,35.24,3.19,48.44,6.38h.07a397.41,397.41,0,0,1,35.24,21c1.82,1.23,3.56,2.46,5.3,3.77,6.23,9.64,9.71,22.19,11,38.86.29,5.15.58,10.37.94,16a362.79,362.79,0,0,0-79.33-39.88,375.92,375.92,0,0,0-85.34-20,334,334,0,0,0-43.44-2.32C932.67,109.71,918.24,110.94,904,112.46Z"/><path class="cls-8" d="M1273.91,584.08a92.89,92.89,0,0,0-6.31-45.17,113.9,113.9,0,0,0-23.49-37.35c-20.16-21.17-46.55-35.24-74.4-45.61-56.85-20.59-117.32-31.69-178.45-40.39q-23.06-3.26-46.19-6.16c-15.52-2-31.69-4.28-47.64-7-32.12-5.3-64.61-12.91-96.73-24.29a348.28,348.28,0,0,1-47.35-20.6c-15.45-8.19-30.31-17-45-28.35S679.53,304,668.07,286.78c-11.53-17.62-19.65-38.07-21.6-60.76a108.27,108.27,0,0,1,2.82-35,112.35,112.35,0,0,1,13.49-31.77,142.4,142.4,0,0,1,27-31.61,153.52,153.52,0,0,1,4.43,27c.43,4.72.72,9.87.94,15.38,0,.07.07.07,0,.14,6.09,30,18.85,68.6,45.9,93.32a174.28,174.28,0,0,0,13.71,11.24,3.15,3.15,0,0,0,.29.22c1,.8,2,1.52,3.11,2.32a210.27,210.27,0,0,0,18.49,12.47c2.76,1.67,5.59,3.41,8.56,5.15.51.29.94.58,1.45.87,1,.58,2,1.16,3.12,1.67,1.52.87,3,1.67,4.64,2.54.72.43,1.52.8,2.25,1.16,9.21,4.64,18.71,8.84,28.42,12.91,1.38.58,2.76,1.08,4.06,1.59s2.61,1,3.85,1.45c24.43,9.36,50.32,16.53,76.93,22.84,14.87,3.48,29.66,6.46,45.18,9.65s31,6.59,46.62,10.15c53.23,12.4,106.81,27.77,157.5,51.41,8.55,4,17,8.19,25.38,12.69,1.81,1,3.55,2,5.36,3s3.63,2.11,5.37,3.19,3.19,1.89,4.78,2.91c1.17.72,2.4,1.52,3.56,2.24,1.81,1.16,3.62,2.4,5.44,3.7,19.72,13.49,37.85,29.95,50.9,50.54a128,128,0,0,1,18.13,46.63C1280.66,552.39,1279.71,569.29,1273.91,584.08Z"/><path class="cls-9" d="M695.85,459.21v45.25c0,92.75,13.77,155.47,42.27,202.38a220.88,220.88,0,0,0,42,50.47c1.3,1.23,2.68,2.54,4.06,3.77,45.68,41.48,108.47,56.78,171.2,56.78,32.19,0,64.31-5.15,94-16.39,34.59-12.83,65.92-33.86,90.14-64a240.14,240.14,0,0,0,28-44.09l.21-.44c.08,0,4.36-9.06,6.31-13.63a20,20,0,0,0,1-4c1.3-8.34,1.09-16.09-2.83-24.87-3.55-8.7-10.51-17.91-19.22-26.39-2-2-4-3.85-6.16-5.66-.87-.8-1.74-1.52-2.61-2.25l-.07-.07-.07-.07c-.66-.51-1.24-.94-1.89-1.45s-1.23-1-2-1.52c-24.15,79.32-72.29,123.27-148.65,123.27C886.77,736.36,833,650.14,833,519.62v-4.35c-3.56-.95-7.18-2-10.74-2.9l-2.32-.66c-4.93-1.45-9.93-2.9-14.86-4.42-4.64-1.38-9.28-2.9-13.92-4.42s-9.21-3.05-13.78-4.79c-4.5-1.59-9-3.19-13.41-4.93a7.83,7.83,0,0,1-.8-.29c-.66-.29-1.31-.51-2-.8-2.76-1-5.51-2.17-8.27-3.33-.87-.29-1.74-.66-2.61-1a4,4,0,0,0-.8-.36c-.21-.07-.43-.22-.65-.29-2-.8-3.84-1.6-5.8-2.54s-3.84-1.67-5.73-2.54c-.14,0-.21-.07-.36-.14a4,4,0,0,0-.87-.36c-4.42-2.11-8.85-4.21-13.27-6.39-6.89-3.62-13.7-7.46-20.38-11.6-2.24-1.37-4.42-2.83-6.59-4.28Z"/><path class="cls-10" d="M915.27,43H612.6V86.14c47.5,5.22,68.38,10.37,77.15,41.48,0,5.54,2.87,11.64,3.48,17.17.66,6,.59,12.07,1.28,18.08a194.33,194.33,0,0,0,7.89,37c7.57,23.79,20,46.63,38.62,63.61a174.28,174.28,0,0,0,13.71,11.24,3.15,3.15,0,0,0,.29.22c1,.8,2,1.52,3.11,2.32,5.37,3.92,11.61,8.2,18.49,12.47,2.76,1.67,5.59,3.41,8.56,5.15,1.52.87,3.05,1.74,4.57,2.54s3,1.67,4.64,2.54c.72.43,1.52.8,2.25,1.16,9.21,4.64,18.71,8.84,28.42,12.91,1.38.58,2.76,1.08,4.06,1.59s2.61,1,3.85,1.45V209.63c0-39.3,1.16-65.26,6.3-82.81,8.85-30.38,29.44-35.53,76-40.68V43Z"/><path class="cls-11" d="M1297.26,43h-243V86.14c19.29,1.3,35.24,3.19,48.44,6.38h.07c19.15,4.64,32.27,12.11,40.54,24.73,6.23,9.64,9.71,22.19,11,38.86.29,5.15.58,10.37.94,16,1.81,32.12,4,72.73,4,141.32v97.75c8.55,4,17,8.19,25.38,12.69,1.81,1,3.55,2,5.36,3s3.56,2,5.37,3.19c1.59.95,3.19,1.89,4.78,2.91,1.17.72,2.4,1.52,3.56,2.24,1.81,1.16,3.62,2.4,5.44,3.7V313.39c0-41.18.5-71.71,1.45-96.29.43-13.78,1-25.75,1.74-36.62v-.07c.14-2.4.29-4.72.43-7,.44-5.58.87-10.87,1.31-16.17,3.84-41.91,20.52-64,83.24-71.06V43Z"/><path class="cls-12" d="M126.22,985.46v62.79q0,17.8-6.57,26.67-11.82,15.91-48.84,15.92-26.75,0-40.95-8.62a26.26,26.26,0,0,1-11.49-13.62,59.39,59.39,0,0,1-3.12-20.35V985.46a5.72,5.72,0,0,0-1.15-3.86,8.43,8.43,0,0,0-4.1-2.14v-2.62H45v2.62a7.86,7.86,0,0,0-4.08,2.09,5.83,5.83,0,0,0-1.17,3.91v55.89q0,9.69,1.07,14.32a16.28,16.28,0,0,0,4,7.76q7.88,8.37,26.92,8.37t27-8.37a16.8,16.8,0,0,0,3.94-7.76q1.07-4.64,1.07-14.32V985.46a5.67,5.67,0,0,0-1.15-3.86,8.47,8.47,0,0,0-4.11-2.14v-2.62h33v2.62a8.52,8.52,0,0,0-4.11,2.14A5.72,5.72,0,0,0,126.22,985.46Z"/><path class="cls-12" d="M176.38,1028.3v52.12a5.91,5.91,0,0,0,1.19,3.94,8.22,8.22,0,0,0,4.07,2.21v2.3H151.1v-2.3a7.83,7.83,0,0,0,4.07-2.13,5.92,5.92,0,0,0,1.19-3.94v-75.18a5.69,5.69,0,0,0-1.16-3.86,8.86,8.86,0,0,0-4.1-2.22V997h35.31v2.29q-3.61.9-3.62,3.2,0,2,2.63,4.6L234.74,1056v-50.64a5.84,5.84,0,0,0-1.16-3.9,8.19,8.19,0,0,0-4.1-2.18V997H260v2.29a8.23,8.23,0,0,0-4.11,2.18,5.88,5.88,0,0,0-1.15,3.89v75.11a5.91,5.91,0,0,0,1.15,3.9,8.65,8.65,0,0,0,4.11,2.25v2.3H227.09v-2.3c2.41-.48,3.61-1.49,3.61-3a3.79,3.79,0,0,0-1-2.36c-.66-.81-2.16-2.42-4.52-4.81Z"/><path class="cls-12" d="M307.55,1005.31v75.11a5.91,5.91,0,0,0,1.15,3.9,8.7,8.7,0,0,0,4.11,2.25v2.3h-32.5v-2.3a7.75,7.75,0,0,0,4.06-2.13,5.92,5.92,0,0,0,1.19-3.94v-75.18a5.69,5.69,0,0,0-1.15-3.86,9,9,0,0,0-4.1-2.22V997h32.5v2.29a8.28,8.28,0,0,0-4.11,2.18A5.88,5.88,0,0,0,307.55,1005.31Z"/><path class="cls-12" d="M380.48,1059.77l22.3-48.62c1.31-2.79,2-4.88,2-6.24q0-4.11-5.34-5.67V997H435v2.29a11.45,11.45,0,0,0-4.76,2.63,27.17,27.17,0,0,0-3.78,6.4L394.21,1076a14.31,14.31,0,0,0-1.72,5.5c0,2.74,1.8,4.47,5.41,5.17v2.22h-36v-2.22c3.57-.7,5.34-2.43,5.34-5.17a14.37,14.37,0,0,0-1.73-5.5l-32.19-67.71a27.24,27.24,0,0,0-3.74-6.44,11.33,11.33,0,0,0-4.8-2.59V997h36.83v2.29c-3.5,1.1-5.25,3-5.25,5.67q0,1.8,2.05,6.24Z"/><path class="cls-12" d="M475.84,1049.8v22.41H534.2a5.88,5.88,0,0,0,3.89-1.14,8,8,0,0,0,2.18-4.12h2.3v27.17h-2.3a7.75,7.75,0,0,0-2.14-4.06,5.88,5.88,0,0,0-3.93-1.19H448.59v-2.3a7.83,7.83,0,0,0,4.07-2.13,5.92,5.92,0,0,0,1.19-3.94v-75.18a5.69,5.69,0,0,0-1.16-3.86,8.86,8.86,0,0,0-4.1-2.22V997h83.06a5.93,5.93,0,0,0,4-1.16,8.19,8.19,0,0,0,2.18-4.1H540v27.17h-2.21a8.13,8.13,0,0,0-2.18-4.12,6.09,6.09,0,0,0-4-1.14H475.84v20.2h34.63a5.88,5.88,0,0,0,3.91-1.15,8.7,8.7,0,0,0,2.25-4.11h2.21v26.52h-2.21a8.35,8.35,0,0,0-2.18-4.09,5.91,5.91,0,0,0-4-1.17Z"/><path class="cls-12" d="M587.89,1051.11v29.32a5.88,5.88,0,0,0,1.15,3.89,8.7,8.7,0,0,0,4.11,2.25v2.3h-32.5v-2.3a7.75,7.75,0,0,0,4.06-2.13,5.92,5.92,0,0,0,1.19-3.94v-75.18a5.69,5.69,0,0,0-1.15-3.86,9,9,0,0,0-4.1-2.22V997h60.24q11.73,0,17.89,1.19a31,31,0,0,1,11,4.3q9.93,6.49,9.93,21.18,0,11.16-6.12,17.44t-19.73,9.07l17.4,24.24q4.75,6.72,7.59,9.13a13.4,13.4,0,0,0,6.44,3.07v2.3H626.64v-2.3c2.84-.76,4.27-2,4.27-3.68q0-1.8-2.64-5.49l-18.36-26.29Zm0-16.66h33.17c5,0,8.75-.54,11.16-1.64q5.09-2.22,5.08-8.78c0-3.88-1.19-6.6-3.57-8.13s-6.61-2.3-12.67-2.3H587.89Z"/><path class="cls-12" d="M767,1005.23l-11.08,21.42-2-1.06a5.47,5.47,0,0,0-1.72-4.27q-4.68-4.19-13.8-6.9a64.54,64.54,0,0,0-18.46-2.7,41.48,41.48,0,0,0-14.12,2.22q-8.86,3.19-8.86,9.27,0,4,4.27,5.7t16.5,2.67l13,1q17,1.32,25.86,6.56a25.14,25.14,0,0,1,12.14,21.76q0,14-12.64,22.15-12.06,7.8-32.66,7.8a96.16,96.16,0,0,1-40.13-8.78,5.88,5.88,0,0,0-2.22-.58,3.85,3.85,0,0,0-3,2l-2-.82,9.44-22.49,2.05.82v.66a4.68,4.68,0,0,0,1.64,3.61q4.11,3.62,14.2,6.28a77.77,77.77,0,0,0,19.94,2.67,49.3,49.3,0,0,0,15.6-2.3q8.53-2.79,8.54-9,0-5-5.92-7-3.93-1.32-14.2-2.22l-12.88-1.07a110.26,110.26,0,0,1-15.92-2.13,32.53,32.53,0,0,1-9.6-3.86,22.7,22.7,0,0,1-8.21-8.94,26.3,26.3,0,0,1-3-12.4q0-15.09,13-23.06Q702.49,995,719.89,995a70.47,70.47,0,0,1,17.6,2.1,116.3,116.3,0,0,1,19.5,7.34,13.94,13.94,0,0,0,4.67,1.57c.88,0,2-.6,3.37-1.81Z"/><path class="cls-12" d="M856,1065.89H813.67l-4.76,10a14.58,14.58,0,0,0-1.72,5.66q0,3.95,5.25,5v2.3H778.67v-2.3a8.87,8.87,0,0,0,4.64-1.88,20.4,20.4,0,0,0,3.57-5.51l33.57-68a15.84,15.84,0,0,0,1.88-6.72q0-3.37-4.59-5.26V997h35.7v2.29q-4.52,1.82-4.52,5.58a15.11,15.11,0,0,0,2.06,6.65l34.8,65.91q2.87,5.37,4.51,7a9.78,9.78,0,0,0,5,2.23v2.3H857.75v-2.3q5.32-.9,5.33-5a14,14,0,0,0-2.05-6.29ZM849.33,1053l-15.05-29.56L820,1053Z"/><path class="cls-12" d="M934.38,1072.21h51.46a5.86,5.86,0,0,0,3.94-1.14A8.74,8.74,0,0,0,992,1067h2.22v27.17H992a8.08,8.08,0,0,0-2.17-4.1,6,6,0,0,0-4-1.15H907.13v-2.3a7.83,7.83,0,0,0,4.07-2.13,5.92,5.92,0,0,0,1.19-3.94v-75.18a5.69,5.69,0,0,0-1.16-3.86,8.86,8.86,0,0,0-4.1-2.22V997h32.5v2.29a8.24,8.24,0,0,0-4.1,2.18,5.84,5.84,0,0,0-1.15,3.9Z"/><path class="cls-12" d="M1160.37,986.33,1147,1012.7l-2.3-1.31c0-.55.08-1,.08-1.31,0-1.87-1.59-3.86-4.76-6q-14.6-10.19-34.31-10.18a50.27,50.27,0,0,0-15.34,2.13,18.38,18.38,0,0,0-7.84,4.92,10.36,10.36,0,0,0-3,7.13q0,6.31,7.64,8.61,3.94,1.15,16.91,2.46l12.88,1.31a104.89,104.89,0,0,1,18.59,3.37,43.69,43.69,0,0,1,12.6,6,28.16,28.16,0,0,1,8.83,10.57,31.4,31.4,0,0,1,3.23,14,31.9,31.9,0,0,1-7.63,21q-6.9,8.37-21.42,12.39a86,86,0,0,1-23.23,3q-22.25,0-43.91-10.67c-3.07-1.42-4.89-2.13-5.5-2.13s-1.83.6-3.36,1.8l-2.39-1.23,12.16-27.5,2.38,1.16v1.06c0,2.46,1.17,4.74,3.52,6.81q5.34,4.77,16.5,8.21a71.75,71.75,0,0,0,21.17,3.45q10.92,0,18.63-3.68a18.06,18.06,0,0,0,6.82-5.46,11.62,11.62,0,0,0,2.55-7.08c0-3.72-2-6.36-6-7.95q-4.18-1.64-16.91-3l-12.64-1.32a173.23,173.23,0,0,1-18-2.5,46.08,46.08,0,0,1-10.51-3.83,27.3,27.3,0,0,1-11.73-11.08,29.84,29.84,0,0,1-3.86-15.28q0-14.21,9.77-23.49,12.81-12.24,38.41-12.24a87.65,87.65,0,0,1,20,2.18,152.47,152.47,0,0,1,23.14,8c3.17,1.26,5.12,1.9,5.83,1.9a6.81,6.81,0,0,0,4-1.9Z"/><path class="cls-12" d="M1231.09,995q21.93,0,36.55,11.17,17.49,13.46,17.5,37.51,0,22.57-17.5,36-14.46,11.16-36.39,11.16t-36.39-11.16q-17.58-13.46-17.57-36.77,0-23.55,17.57-36.77Q1209.41,995.22,1231.09,995Zm.08,17.41q-14.22,0-23.18,9.1-8.29,8.55-8.3,21.43t8.3,21.34q9,9.18,23.26,9.19t23.18-9.19a28.72,28.72,0,0,0,8.3-20.93q0-13.54-8.3-21.84Q1245.4,1012.54,1231.17,1012.38Z"/><path class="cls-12" d="M1330.63,1072.21h51.46a5.9,5.9,0,0,0,3.94-1.14,8.74,8.74,0,0,0,2.21-4.12h2.22v27.17h-2.22a8.16,8.16,0,0,0-2.18-4.1,6,6,0,0,0-4-1.15h-78.71v-2.3a7.75,7.75,0,0,0,4.06-2.13,5.92,5.92,0,0,0,1.19-3.94v-75.18a5.69,5.69,0,0,0-1.15-3.86,8.92,8.92,0,0,0-4.1-2.22V997h32.5v2.29a8.28,8.28,0,0,0-4.11,2.18,5.89,5.89,0,0,0-1.14,3.9Z"/><path class="cls-12" d="M1500.54,1005.32V1054q0,16.66-6.56,24.46-10.59,12.39-39.89,12.39-19.62,0-31.68-6-8.72-4.35-11.91-12.39-3-7.39-3-18.47v-48.67a5.69,5.69,0,0,0-1.15-3.86,9,9,0,0,0-4.1-2.22V997h32.5v2.29a8.09,8.09,0,0,0-4.12,2.18,5.89,5.89,0,0,0-1.14,3.9v44.24q0,7.71,1.36,11.81a13.84,13.84,0,0,0,4.72,6.74q6.72,5.33,19.45,5.33t19.45-5.33a13.89,13.89,0,0,0,4.6-6.74q1.31-4.09,1.31-11.81v-44.24a5.9,5.9,0,0,0-1.1-3.86,8.76,8.76,0,0,0-4.15-2.22V997h30.61v2.29a8.19,8.19,0,0,0-4.1,2.18A5.84,5.84,0,0,0,1500.54,1005.32Z"/><path class="cls-12" d="M1575.08,1013.6v66.82a5.86,5.86,0,0,0,1.15,3.9,8.61,8.61,0,0,0,4.1,2.25v2.3h-32.5v-2.3a7.79,7.79,0,0,0,4.06-2.13,5.92,5.92,0,0,0,1.19-3.94v-66.9H1526a5.91,5.91,0,0,0-4,1.18,8.26,8.26,0,0,0-2.18,4.08h-2.22V991.69h2.22a8,8,0,0,0,2.09,4.07,5.91,5.91,0,0,0,4,1.19h76.24a5.93,5.93,0,0,0,4-1.16,8.27,8.27,0,0,0,2.18-4.1h2.21v27.17h-2.21a8.34,8.34,0,0,0-2.18-4.08,5.93,5.93,0,0,0-4-1.18Z"/><path class="cls-12" d="M1651.43,1005.31v75.11a5.86,5.86,0,0,0,1.15,3.9,8.61,8.61,0,0,0,4.1,2.25v2.3h-32.5v-2.3a7.75,7.75,0,0,0,4.06-2.13,5.87,5.87,0,0,0,1.19-3.94v-75.18a5.69,5.69,0,0,0-1.15-3.86,8.92,8.92,0,0,0-4.1-2.22V997h32.5v2.29a8.19,8.19,0,0,0-4.1,2.18A5.83,5.83,0,0,0,1651.43,1005.31Z"/><path class="cls-12" d="M1728.8,995q21.92,0,36.54,11.17,17.51,13.46,17.5,37.51,0,22.57-17.5,36-14.44,11.16-36.38,11.16t-36.39-11.16q-17.58-13.46-17.58-36.77,0-23.55,17.58-36.77Q1707.11,995.22,1728.8,995Zm.08,17.41q-14.22,0-23.18,9.1-8.29,8.55-8.3,21.43t8.3,21.34q9,9.18,23.26,9.19t23.18-9.19a28.72,28.72,0,0,0,8.3-20.93q0-13.54-8.3-21.84Q1743.09,1012.54,1728.88,1012.38Z"/><path class="cls-12" d="M1826.36,1028.3v52.12a5.91,5.91,0,0,0,1.19,3.94,8.26,8.26,0,0,0,4.07,2.21v2.3h-30.54v-2.3a7.78,7.78,0,0,0,4.07-2.13,5.92,5.92,0,0,0,1.19-3.94v-75.18a5.64,5.64,0,0,0-1.16-3.86,8.86,8.86,0,0,0-4.1-2.22V997h35.31v2.29q-3.62.9-3.62,3.2,0,2,2.64,4.6l49.31,48.92v-50.64a5.89,5.89,0,0,0-1.15-3.9,8.28,8.28,0,0,0-4.1-2.18V997H1910v2.29a8.23,8.23,0,0,0-4.11,2.18,5.88,5.88,0,0,0-1.14,3.89v75.11a5.91,5.91,0,0,0,1.14,3.9,8.65,8.65,0,0,0,4.11,2.25v2.3h-32.93v-2.3c2.41-.48,3.61-1.49,3.61-3a3.79,3.79,0,0,0-1-2.36c-.66-.81-2.16-2.42-4.52-4.81Z"/></svg>