<svg id="Слой_1" data-name="Слой 1" xmlns="http://www.w3.org/2000/svg" viewBox="0 0 1921 618"><defs><style>.cls-1{fill:#383838;}</style></defs><title>logo-v-bl</title><path d="M1920,13.80179V4.0308h-92.75332v9.771c11.83793,2.07616,14.889,6.107,14.889,17.95412V245.37733h-1.098L1725.3393,38.84019c-4.02767-7.08428-9.15332-16.85527-9.15332-18.93143,0-4.03081,3.0511-5.49642,12.32658-6.107V4.0308H1616.35388v9.771c9.15332,2.07616,12.8145,6.107,12.8145,17.95412V265.77513l33.19642,96.97859h43.56988v-9.64948c-10.74-2.19842-14.40113-6.22922-14.40113-17.46582V99.90982h1.58589l129.00084,225.46932c3.66193,6.59525,8.78758,16.36624,8.78758,18.4424,0,6.596-6.22438,8.18387-13.30315,9.2827v9.64948h99.83209v-9.64948c-9.27473-2.19842-12.32584-4.15232-12.32584-17.46582V31.75591C1905.111,19.90876,1908.16207,15.878,1920,13.80179Z"/><path d="M1108.28367,94.29114c0-23.08375,15.37769-42.01593,54.30984-42.01593,56.87228,0,86.52969,24.06182,86.52969,39.93977,0,4.15307-.48866,9.64874-.48866,11.8479l9.27548,4.03006,50.64866-84.52015-5.73647-3.17574c-4.02767,5.12964-8.17675,8.18312-15.25553,8.18312-7.20019,0-17.94014-6.59525-36.979-14.16783C1231.67021,7.08429,1205.06466,0,1168.69572,0c-89.09215,0-128.51294,50.19905-128.51294,104.06288,0,127.02437,215.04263,77.31361,215.04263,152.67406,0,31.75591-20.992,52.7635-83.47859,52.7635-24.40884,0-55.53-6.59525-75.30108-17.58808v63.02427a235.26467,235.26467,0,0,0,71.76207,11.48112c106.05647,0,155.23991-56.91731,155.23991-112.73429C1323.44772,113.22332,1108.28367,166.47586,1108.28367,94.29114Z"/><path d="M1628.9248,340.15751c-.36649-1.09883-.8544-2.19842-1.22089-3.41951L1530.31285,53.25253c-6.10222-18.44314-8.17676-23.57278-8.17676-27.72584,0-7.08354,4.14909-11.11435,14.40113-11.7249V4.0308H1422.91407v9.771c12.20442,1.46562,14.76687,4.03006,14.76687,8.18313,0,5.74093-1.95238,10.74831-6.10221,23.08449L1332.23529,336.738c-2.07529,5.61793-5.6143,15.75569-14.40187,16.36624v9.64948h90.19086v-9.64948c-11.83793-.61055-15.37769-6.71751-15.37769-12.94673a34.51014,34.51014,0,0,1,3.05111-12.21392l19.03887-56.42828h122.28856l22.09,62.53524c1.46447,4.64135,2.56319,8.30538,2.56319,11.84789,0,4.5191-3.66117,6.107-12.32658,7.2058v9.64948h92.63115v-9.64948C1635.027,352.12766,1632.34165,349.56247,1628.9248,340.15751Zm-197.834-116.27606,43.93563-143.51362h1.58663l45.03436,143.51362Z"/><path d="M366.62061,339.66922V241.83556c-35.02663-25.03839-56.62795-67.54261-56.62795-118.719,0-51.29863,21.72348-93.92511,56.87228-119.08577H262.15078v9.771c7.68885,2.07616,10.74,4.64136,10.74,10.74832,0,1.58787-2.07454,7.69483-3.66118,11.72489L191.48744,211.17849H190.023L114.72188,37.37458c-2.07529-5.12964-4.14983-11.84789-4.14983-13.31351,0-4.64135,3.0511-7.69483,10.252-10.25928V4.0308H0v9.771c9.76339.61055,13.79106,4.64136,13.79106,13.92406V339.66922c0,8.79367-5.12565,12.82447-13.79106,13.435v9.64948H92.6319v-9.64948c-12.20442-.61055-16.35425-4.64135-16.35425-13.435V92.70327h1.58663L182.822,331.97439h10.12988L302.54739,92.70327h1.09873v246.966c0,8.79367-4.14983,12.82447-16.35426,13.435v9.64948h95.683v-9.64948C371.25836,352.49369,366.62061,348.46289,366.62061,339.66922Z"/><path d="M659.40536,0c-45.523,0-82.502,15.51192-109.71839,41.5269l-.24358.12226c-19.161,18.5654-33.44,42.26044-42.34974,69.49726a225.58951,225.58951,0,0,0-6.10221,22.474l2.68536,3.29725,59.43548,74.38313-10.49562,15.02289-2.441,3.54252L540.778,243.17892l-12.69234-2.809c-.12216.12226-.24432.24452-.36649.24452a125.857,125.857,0,0,1-21.35774,13.1905c21.11416,66.6883,74.08094,112.61278,153.044,112.61278,63.58457,0,110.57205-30.16878,137.42118-77.06984V77.68038C770.09957,30.53481,723.11209,0,659.40536,0Zm0,309.50044c-60.9007,0-95.1951-45.06941-95.1951-126.04705,0-80.97838,34.2944-126.04779,95.1951-126.04779,60.4113,0,95.31652,45.06941,95.31652,126.04779C754.72188,264.431,719.81666,309.50044,659.40536,309.50044Zm161.83-154.13967v56.30676a250.5693,250.5693,0,0,0,0-56.30676Z"/><path class="cls-1" d="M532.72339,212.27808l-2.5632,3.54176a27.4094,27.4094,0,0,0-5.85789-.7328c-5.24781,0-11.47218,7.32806-24.0431,14.29008-11.59435,6.596-28.31435,12.703-54.43125,12.703-32.21986,0-59.67981-11.97015-79.20734-32.3672-20.38117-21.00759-32.21911-51.17637-32.21911-86.59631,0-35.29842,11.83794-65.4672,32.21911-86.597C386.14814,16.12247,413.60809,4.0308,445.828,4.0308a99.78526,99.78526,0,0,1,46.74241,11.11435c11.59435,5.49641,19.52752,11.11434,24.8975,11.11434,4.14908,0,7.32235-.85432,10.00771-3.175l3.66118,1.9539L498.91689,79.02374l-5.24781-2.809c.48791-1.9539,1.34231-3.54177,1.34231-5.9847,0-18.56541-28.19219-29.31372-47.9633-29.31372-36.12536,0-68.223,28.58091-68.223,86.4748,0,42.871,20.6255,78.16942,70.17543,78.16942,18.18522,0,46.25525-11.11509,46.25525-26.99305,0-1.95464-.24433-4.76361-1.58664-6.71751l2.68462-1.71013,1.831-1.09958Z"/><path d="M1072.03689,288.98114v85.61973h-9.642c-2.07454-10.38154-7.68885-11.84715-23.06579-11.84715H802.19652v-9.64948c15.49986-2.19842,19.03887-6.22922,19.03887-17.46582V211.66753a250.5693,250.5693,0,0,0,0-56.30676V31.75591c0-11.84715-3.539-15.878-20.50334-17.95412V4.0308H912.40282v9.771c-19.52678,2.07616-23.06654,6.107-23.06654,17.95412V305.34812h149.99285a55.13134,55.13134,0,0,0,6.59012-.24451c10.49562-.73281,14.76762-4.03081,16.47567-16.12247Z"/><path d="M822.822,183.45339a236.91326,236.91326,0,0,1-1.58664,28.21414V155.36077A236.3153,236.3153,0,0,1,822.822,183.45339Z"/><path class="cls-1" d="M544.68311,469.55429a272.60025,272.60025,0,0,1,43.073-3.07733c27.68641,0,46.80349,5.71931,60.4262,17.152,14.28418,11.65929,23.074,29.25259,23.074,54.53923,0,26.39-9.0103,46.18391-23.074,58.94054-14.7192,13.41266-38.23417,20.22931-67.023,20.22931a294.13653,294.13653,0,0,1-36.47621-1.98ZM571.714,595.12871c3.73641.656,9.44532.656,14.93969.656,35.15923.22066,56.03428-19.132,56.03428-56.73392.22049-32.77125-18.67611-51.46189-52.51835-51.46189-8.56932,0-14.71921.662-18.45562,1.53867Z"/><path class="cls-1" d="M803.93176,550.04215H748.118V593.59h62.40465v22.20931H721.08709V467.5743H807.2272v22.21527H748.118v38.26394h55.81378Z"/><path class="cls-1" d="M859.92432,586.33206a74.77058,74.77058,0,0,0,35.81474,9.45267c17.35913,0,27.03089-8.13466,27.03089-20.22931,0-11.218-7.47282-17.814-26.36942-24.63062-24.391-8.79665-39.99213-21.774-39.99213-43.10657,0-24.1893,20.21358-42.65928,52.29786-42.65928,16.04214,0,27.90689,3.51866,35.60021,7.47268l-6.59682,21.774a62.688,62.688,0,0,0-29.44437-7.03732c-17.13863,0-24.61146,9.238-24.61146,17.814,0,11.43266,8.56932,16.71065,28.34787,24.41,25.708,9.67333,38.23418,22.65062,38.23418,43.98325,0,23.75393-18.0206,44.42457-56.25477,44.42457-15.60116,0-31.86379-4.40131-39.99213-9.238Z"/><path class="cls-1" d="M1027.98543,467.5743V615.79935h-27.03089V467.5743Z"/><path class="cls-1" d="M1203.97823,608.98269a146.61692,146.61692,0,0,1-47.68545,8.35532c-25.05244,0-43.949-6.37533-58.01273-19.794-13.18769-12.536-20.875-32.1033-20.65455-54.53923,0-46.83992,33.3953-76.9692,82.40369-76.9692,18.23513,0,32.51931,3.73933,39.33066,7.03732l-5.92939,21.774c-8.1343-3.51866-18.0206-6.3813-33.62176-6.3813-31.6433,0-53.84129,18.69661-53.84129,53.22122,0,33.64794,20.66051,53.66255,51.42186,53.66255,9.67177,0,16.91814-1.324,20.43407-3.0833V555.32014H1151.6744V533.99348h52.30383Z"/><path class="cls-1" d="M1257.97446,615.79935V467.5743h30.7673l38.23417,63.55654a408.96118,408.96118,0,0,1,25.27293,49.70257h.435c-1.758-19.794-2.41347-38.92592-2.41347-61.57655V467.5743h25.04648V615.79935H1347.41l-38.67515-65.09521c-9.44532-16.2753-19.33758-34.52462-26.58991-51.24124l-.65551.22067c1.09649,19.132,1.317,38.70526,1.317,63.11521v53.00057Z"/></svg>