<svg id="Слой_1" data-name="Слой 1" xmlns="http://www.w3.org/2000/svg" viewBox="0 0 922.05439 410.17206"><defs><style>.cls-1{fill:none;}</style></defs><title>Logo-3</title><path d="M64.15041,355.27742c0,12.31533-3.63061,22.86927-10.55394,30.49A35.45683,35.45683,0,0,1,39.642,395.38671a51.24418,51.24418,0,0,1-19.00141,3.40055H0V311.76759H20.64057A49.018,49.018,0,0,1,39.642,315.16814a35.53114,35.53114,0,0,1,13.95449,9.61933C60.5198,332.40816,64.15041,342.9621,64.15041,355.27742Zm-13.60222,0c0-8.91477-2.45875-16.29821-7.03835-21.34512-5.15475-5.74428-12.78263-8.5625-22.86927-8.5625H13.60941v59.81525h7.03116c10.08664,0,17.71452-2.93325,22.86927-8.5625C48.08944,371.57564,50.54819,364.07,50.54819,355.27742Z"/><path d="M112.168,347.18943h31.77685v12.30813H112.168v26.97438h38.578v12.31532H98.55855V311.76759h52.18737v12.20029H112.168Z"/><path d="M232.29451,381.31c-2.45875,8.44746-10.08663,15.13354-19.58374,17.01a26.72533,26.72533,0,0,1-5.277.4673,28.31939,28.31939,0,0,1-10.32388-1.87641,34.44891,34.44891,0,0,1-14.4218-11.14347l10.79119-8.44027a19.34385,19.34385,0,0,0,8.56249,6.8011,13.37778,13.37778,0,0,0,7.973.70456c4.45739-.81959,8.088-3.75283,9.14483-7.27561,1.17186-3.98289-1.52414-7.50566-3.98289-9.84938-3.87505-3.6378-10.20885-9.84939-10.67616-10.31669l-10.669-10.08664a24.81921,24.81921,0,0,1-6.68608-10.43891,18.61628,18.61628,0,0,1-.23724-11.02124,19.85706,19.85706,0,0,1,6.44883-9.73436,22.59693,22.59693,0,0,1,10.43891-4.92469,23.14757,23.14757,0,0,1,12.90485.93461,29.383,29.383,0,0,1,11.84083,8.79975l-10.669,8.5553c-4.45739-5.392-9.0298-5.392-11.49574-4.92469-3.04828.58952-5.62925,2.581-6.3338,5.04691-.46731,1.63917-.35228,4.33517,3.28552,7.85794l14.544,13.95449c2.10647,2.10648,4.68744,4.57242,6.56386,6.3338a26.08952,26.08952,0,0,1,7.62788,11.37353A20.62807,20.62807,0,0,1,232.29451,381.31Z"/><path d="M265.75366,398.78726V311.76759h13.60941v87.01967Z"/><path d="M383.98942,365.95358v23.56663l-3.04828,2.11367c-.115,0-.115,0-.23006.115a.87384.87384,0,0,1-.47449.23724c-.115.115-.23006.23725-.34509.23725a.62878.62878,0,0,1-.4745.23006,1.5417,1.5417,0,0,1-.4673.35228c-.115.115-.23725.115-.35228.23725-.115.115-.23725.115-.35228.23005-.23725.12222-.35228.12222-.58234.23725-.12221.115-.23724.115-.35227.23725a.91893.91893,0,0,1-.58953.23006l-.23725.23725h-.23005a2.75291,2.75291,0,0,1-.58953.35227c-.23006.115-.58234.23006-.81958.35228l-.115.115a44.10362,44.10362,0,0,1-15.60085,3.75283H356.9a41.53447,41.53447,0,0,1-13.71724-2.22869h-.12222c-.46731-.115-.81958-.35228-1.28689-.46731-.58953-.23725-1.17186-.4673-1.76139-.70455a23.8561,23.8561,0,0,1-4.22014-2.11367,38.58151,38.58151,0,0,1-9.61932-7.26841,43.26816,43.26816,0,0,1-9.38208-13.83947,42.13333,42.13333,0,0,1-3.16331-12.54538c-.115-1.40911-.23724-2.93325-.23724-4.34236v-2.22869a46.014,46.014,0,0,1,3.40055-14.77408,44.568,44.568,0,0,1,9.38208-13.83946A43.56859,43.56859,0,0,1,356.9,311.76759h2.2287a3.31542,3.31542,0,0,1,1.05683.115,42.87663,42.87663,0,0,1,14.659,3.6378.11266.11266,0,0,0,.115.115c.23724.12222.47449.23724.70455.35227h.12222v16.06816a27.81534,27.81534,0,0,0-5.8665-3.75283,33.63269,33.63269,0,0,0-5.392-1.99145.43.43,0,0,1-.35228-.115h-.35228c-.12222-.12222-.23725-.12222-.4745-.12222a.35625.35625,0,0,1-.23005-.115c-.46731-.115-1.05684-.115-1.52414-.23725h-.23725c-.115,0-.35228-.115-.46731-.115h-.23724a.71094.71094,0,0,1-.46731-.115h-1.05683c-.115,0-.23006-.12222-.35228-.12222H356.9a29.11626,29.11626,0,0,0-15.3636,4.22733,2.866,2.866,0,0,1-.58233.35228,25.21267,25.21267,0,0,0-5.16195,4.22013,17.92116,17.92116,0,0,0-1.52413,1.52414.11266.11266,0,0,1-.115.115,22.84188,22.84188,0,0,0-1.52414,2.11367c-.12222.115-.23725.23005-.23725.23005-.23725.35228-.46731.70456-.70455,1.05684a.92645.92645,0,0,0-.23725.47449,28.11846,28.11846,0,0,0-3.63061,8.90758c-.12222.12222-.12222.12222-.12222.23725-.23006,1.17186-.46731,2.34373-.58234,3.51559v1.29408a7.86492,7.86492,0,0,0-.115,1.63916,7.33648,7.33648,0,0,0,.115,1.52414,30.42576,30.42576,0,0,0,1.05683,6.57105A29.95855,29.95855,0,0,0,356.9,385.18505h.81959a.41384.41384,0,0,0,.35227-.12222h1.76139c0-.115.115-.115.23725-.115h.70455c.81959-.115,1.7542-.35228,2.57378-.46731.12222,0,.12222,0,.23725-.115a.67849.67849,0,0,0,.46731-.12222h.35228a.44455.44455,0,0,1,.35227-.115.72071.72071,0,0,1,.46731-.115.39723.39723,0,0,0,.23725-.12221,24.08241,24.08241,0,0,0,4.80966-1.87642h.115v-16.061H353.96677V353.63826h30.02265Z"/><path d="M431.30241,342.84707v55.94019H417.693V307.66248l54.6533,59.93027V311.76759h13.72443v91.00975Z"/><path d="M735.56214,278.13953a6.852,6.852,0,0,1-1.17725-4.12219V194.50872H708.61832v79.50862a6.09533,6.09533,0,0,1-1.17815,3.9757c-.736,1.02987-2.20892,1.76678-4.26956,2.35541v2.65017h36.662v-2.65017A10.46508,10.46508,0,0,1,735.56214,278.13953Z"/><path d="M789.155,184.68666v89.2915a5.99067,5.99067,0,0,0,1.20781,4.05478,8.83274,8.83274,0,0,0,4.3136,2.24308v2.7607H757.92456V280.276a8.83274,8.83274,0,0,0,4.3136-2.24308,5.99067,5.99067,0,0,0,1.20781-4.05478v-89.2915H712.14289a5.91889,5.91889,0,0,0-3.96851,1.18624,8.68591,8.68591,0,0,0-2.24307,4.33516h-2.7607v-30.454h2.7607a9.50471,9.50471,0,0,0,2.28621,4.33517,5.7452,5.7452,0,0,0,3.92537,1.18624H840.37182a6.06528,6.06528,0,0,0,4.05479-1.18624,8.75191,8.75191,0,0,0,2.24307-4.33517h2.7607v30.454h-2.7607a8.68591,8.68591,0,0,0-2.24307-4.33516,6.06528,6.06528,0,0,0-4.05479-1.18624Z"/><path d="M876.5585,165.2467v2.65017a8.28016,8.28016,0,0,1,4.12219,1.91416,4.63716,4.63716,0,0,1,1.61939,3.38617c0,1.17816-1.17725,3.53446-3.53355,6.92064l-21.79087,31.509-11.485-17.08006H816.0432l27.8281,39.16569v40.19555a6.02879,6.02879,0,0,1-1.32553,4.12309,8.78314,8.78314,0,0,1-4.26956,2.208v2.79755h36.80938v-2.79755a9.5536,9.5536,0,0,1-4.26957-2.208,6.85686,6.85686,0,0,1-1.17815-4.12309V233.71251l37.98753-53.59467a53.6524,53.6524,0,0,1,7.80312-9.276,13.00086,13.00086,0,0,1,6.62587-2.94493V165.2467Z"/><path d="M29.07366,196.83663v71.60574a5.9907,5.9907,0,0,0,1.20781,4.05479,8.83282,8.83282,0,0,0,4.3136,2.24307v2.7607H0v-2.7607a8.83287,8.83287,0,0,0,4.3136-2.24307,5.99075,5.99075,0,0,0,1.20781-4.05479V168.712a5.847,5.847,0,0,0-1.20781-3.96851A8.83271,8.83271,0,0,0,0,162.50038v-2.76071H40.0302v2.76071q-3.70969.949-3.70969,3.96851,0,2.07053,2.41561,4.57241l64.96281,67.551V168.712a5.847,5.847,0,0,0-1.20781-3.96851,8.83271,8.83271,0,0,0-4.3136-2.24307v-2.76071h34.59507v2.76071a8.83266,8.83266,0,0,0-4.3136,2.24307,5.847,5.847,0,0,0-1.20781,3.96851v99.73041a5.9907,5.9907,0,0,0,1.20781,4.05479,8.83282,8.83282,0,0,0,4.3136,2.24307v2.7607h-37.097v-2.7607q3.62343-.77644,3.62343-3.7097,0-1.72543-4.22733-6.039Z"/><path d="M231.51448,252.54636a8.79863,8.79863,0,0,1-2.20892,4.27046,5.39866,5.39866,0,0,1-3.9757,1.32464H149.50307v19.28808h75.82679a5.3989,5.3989,0,0,1,3.9757,1.32553,8.79058,8.79058,0,0,1,2.20892,4.26957H234.312V252.54636ZM227.244,180.40051a8.78309,8.78309,0,0,1,2.20892,4.26957h2.79755V154.1918h-2.79755a8.783,8.783,0,0,1-2.20892,4.26957,5.398,5.398,0,0,1-3.9748,1.32553H149.50307v19.43546h73.76615C225.036,179.22236,226.36063,179.51713,227.244,180.40051Zm-25.913,46.674a9.55346,9.55346,0,0,1,2.208,4.26956h2.79755V201.60275H203.539a8.78741,8.78741,0,0,1-2.208,4.26957c-.88429.88339-2.20892,1.17815-3.9757,1.17815h-47.8522v18.84594h47.8522C199.12205,225.89641,200.44668,226.19117,201.331,227.07456Z"/><path d="M467.95317,252.55844a8.79868,8.79868,0,0,1-2.20892,4.27047,5.39866,5.39866,0,0,1-3.9757,1.32463H385.94177v19.28808h75.82678a5.39894,5.39894,0,0,1,3.9757,1.32553,8.79058,8.79058,0,0,1,2.20892,4.26957h2.79755V252.55844Zm-4.27046-72.14584a8.783,8.783,0,0,1,2.20892,4.26956h2.79755V154.20389h-2.79755a8.783,8.783,0,0,1-2.20892,4.26956,5.398,5.398,0,0,1-3.9748,1.32554H385.94177v19.43546h73.76614C461.47469,179.23445,462.79932,179.52921,463.68271,180.4126Zm-25.913,46.674a9.55355,9.55355,0,0,1,2.208,4.26957h2.79755V201.61484h-2.79755a8.7875,8.7875,0,0,1-2.208,4.26956c-.88429.88339-2.20892,1.17815-3.9757,1.17815H385.94177v18.84594H433.794C435.56074,225.90849,436.88537,226.20325,437.76966,227.08664Z"/><path d="M355.93169,237.05146l16.39167,24.54437-2.24307,1.56009q-2.41562-2.25385-3.96851-2.25026-1.55289,0-8.71347,4.14824Q342.55953,273.6164,332.42257,276.6a85.90761,85.90761,0,0,1-24.113,2.98357q-27.86584,0-45.72415-13.19961a55.53258,55.53258,0,0,1-16.56422-19.06611,59.80191,59.80191,0,0,1-6.988-28.72857q0-21.39544,12.50944-37.18323,18.80729-23.72479,56.85323-23.72479,13.97607,0,23.98362,2.93325t25.01887,11.56044q7.16058,4.05479,8.71347,4.05479t3.96851-2.24308l2.24307,1.5529-16.39167,24.58752-2.32935-1.54571a19.19305,19.19305,0,0,0,.17255-2.32216,6.60676,6.60676,0,0,0-2.1568-4.68025,36.09928,36.09928,0,0,0-7.67821-5.29135,64.95989,64.95989,0,0,0-32.352-8.59125q-20.18765,0-32.17945,10.07944-14.14862,11.81927-14.14861,30.85662,0,19.04454,14.14861,30.85661,11.99179,10.083,32.17945,10.07944a64.77533,64.77533,0,0,0,32.352-8.6272,36.30548,36.30548,0,0,0,7.67821-5.30572,6.65233,6.65233,0,0,0,2.1568-4.70183,17.29282,17.29282,0,0,0-.17255-2.24307Z"/><path d="M598.32319,169.71128l-14.06234,27.72925-2.41561-1.38035q.08627-.86273.08627-1.38035,0-2.93325-5.00378-6.29786-15.3564-10.69771-36.06169-10.69772a52.81693,52.81693,0,0,0-16.13286,2.24307,19.25749,19.25749,0,0,0-8.239,5.16913,10.91778,10.91778,0,0,0-3.14893,7.49847q0,6.63216,8.0233,9.04418,4.14105,1.20781,17.772,2.58816l13.54471,1.38035a111.1531,111.1531,0,0,1,19.5406,3.53715,45.65194,45.65194,0,0,1,13.24275,6.29067,29.55921,29.55921,0,0,1,9.27424,11.1219,32.81628,32.81628,0,0,1,3.40774,14.73813,33.56446,33.56446,0,0,1-8.02329,22.07125q-7.24685,8.78895-22.517,13.01269a90.118,90.118,0,0,1-24.415,3.19206q-23.3797,0-46.15551-11.21536-4.83124-2.24307-5.78023-2.24307-1.12154,0-3.53715,1.898l-2.50189-1.29407,12.76826-28.90112,2.50189,1.20781v1.12153q0,3.88224,3.70969,7.16058,5.60768,5.00378,17.34067,8.6272a75.48725,75.48725,0,0,0,22.25817,3.62342q11.47417,0,19.58374-3.875a18.995,18.995,0,0,0,7.16058-5.72271,12.28554,12.28554,0,0,0,2.67443-7.45534q0-5.84492-6.29786-8.34681-4.39986-1.72544-17.772-3.18487l-13.28588-1.38036a182.74672,182.74672,0,0,1-18.89357-2.63129,48.47846,48.47846,0,0,1-11.04281-4.01884A28.65555,28.65555,0,0,1,493.589,211.28718a31.42073,31.42073,0,0,1-4.05479-16.061q0-14.93585,10.26637-24.68817,13.45843-12.8653,40.37529-12.8689a91.2591,91.2591,0,0,1,21.05036,2.30058,158.85346,158.85346,0,0,1,24.3287,8.44028q5.00377,1.995,6.12531,1.99863a7.11732,7.11732,0,0,0,4.22733-1.99863Z"/><path d="M682.69975,215.4171a50.2212,50.2212,0,0,0-13.25174-6.332,115.74235,115.74235,0,0,0-19.58194-3.53355l-13.5465-1.32464c-8.98127-.88339-15.01761-1.76678-17.66778-2.65017-5.44772-1.47291-8.09878-4.56432-8.09878-8.98217a11.24487,11.24487,0,0,1,3.09231-7.50836,19.70638,19.70638,0,0,1,8.24526-5.15385,54.55724,54.55724,0,0,1,16.19667-2.208c13.83946,0,25.76656,3.53355,36.07247,10.60067,3.38708,2.3554,5.00647,4.41694,5.00647,6.3311a5.52255,5.52255,0,0,1-.14738,1.47292l2.50279,1.32463,13.98774-27.68072-2.3554-1.32464a7.14056,7.14056,0,0,1-4.27047,1.91416c-.736,0-2.79754-.58952-6.18372-1.91416a169.68419,169.68419,0,0,0-24.29455-8.54,95.21469,95.21469,0,0,0-21.05486-2.20892,86.27713,86.27713,0,0,0-17.07916,1.6203l-8.83479,17.07915-13.98684,27.68073-.73691,1.472c.03146.02606.05392.0638.08538.08986l-4.20756,8.30278a26.29745,26.29745,0,0,0,10.60067,8.98127,41.60373,41.60373,0,0,0,11.04281,3.97571,156.75047,156.75047,0,0,0,18.84684,2.65016l13.25173,1.47292c8.98128.88339,14.87024,1.91416,17.81517,3.09141,4.12308,1.76678,6.3311,4.417,6.3311,8.39265a12.62484,12.62484,0,0,1-2.65016,7.50925,19.48813,19.48813,0,0,1-7.2145,5.5951c-5.44771,2.65017-11.9262,3.9757-19.58284,3.9757a66.704,66.704,0,0,1-10.75524-.89507,79.73034,79.73034,0,0,1-11.07067-2.687c-.1393-.044-.26781-.05392-.4071-.09886a70.78871,70.78871,0,0,1-7.36188-2.65106,45.01079,45.01079,0,0,1-9.42251,18.69945,107.856,107.856,0,0,0,27.56569,6.98623c.044.0054.08807.01528.13211.02067a96.04413,96.04413,0,0,0,10.731.64974,93.33827,93.33827,0,0,0,24.441-3.23969c10.15942-2.79755,17.66868-7.2145,22.52777-12.957a33.92884,33.92884,0,0,0,7.9505-22.08563,33.25872,33.25872,0,0,0-3.38617-14.72375A30.31969,30.31969,0,0,0,682.69975,215.4171Z"/><path d="M121.471,32.29052A47.34535,47.34535,0,0,0,98.94318,12.26643C91.14006,9.02674,80.09725,7.40734,65.66826,7.40734H0v2.79755a10.23533,10.23533,0,0,1,4.417,2.20892A6.0927,6.0927,0,0,1,5.5951,16.38862v99.68009A6.852,6.852,0,0,1,4.417,120.19089,10.23533,10.23533,0,0,1,0,122.39981v2.79755H65.66826c4.12218,0,8.09788-.14738,11.63144-.44214l11.77882-24.7358a19.1647,19.1647,0,0,1-2.208,1.47291c-5.30124,2.79755-12.957,4.26957-23.26378,4.26957H31.21428V26.8428H63.60672c7.80312,0,14.13422.736,18.84593,2.35541a28.89394,28.89394,0,0,1,12.07359,7.9514c5.88986,6.77235,8.98127,16.49053,8.98127,29.15274a36.06961,36.06961,0,0,1-.14648,3.9757Z"/><path d="M435.52884,119.45488c-1.91416-1.472-4.85909-4.71171-9.12865-9.71728L381.05078,55.11216,421.099,22.8671l6.62587-5.44771c4.12308-3.38618,6.62587-5.30034,7.50926-5.889a14.641,14.641,0,0,1,4.26956-1.32553V7.40734H391.35758v2.79755c3.38618.58863,5.00558,1.76678,5.00558,3.38618,0,1.17815-1.03077,2.50368-3.2388,4.41694l-7.21449,5.88986L344.53616,57.61494,318.91608,78.52332v1.91416l25.62008,35.48384V84.55966l17.81516-14.429,34.60136,42.55186c2.79755,3.53356,4.12218,5.5951,4.12218,6.47849,0,1.472-1.472,2.65016-4.56432,3.23879v2.79755H442.596v-2.79755A15.33945,15.33945,0,0,1,435.52884,119.45488Z"/><path d="M329.37026,120.04441q-2.87124-2.43045-8.83389-11.04282l-22.969-32.53981c21.34873-3.2397,32.09768-14.429,32.09768-33.71707a37.72436,37.72436,0,0,0-3.2397-15.75453,26.71508,26.71508,0,0,0-10.15942-12.221A37.34318,37.34318,0,0,0,302.42555,9.3215a114.25093,114.25093,0,0,0-21.34873-1.61939H207.45806v2.79754a8.78749,8.78749,0,0,1,4.26957,2.208,6.03292,6.03292,0,0,1,1.32463,4.12308V59.5291l25.62009,52.27V77.49255h31.50814L294.0329,112.093q3.97661,5.96356,3.9757,7.50926c0,1.6194-1.472,2.65017-4.41695,3.23969v2.65017h42.55186V122.842A11.74549,11.74549,0,0,1,329.37026,120.04441ZM290.7941,57.61494a115.88189,115.88189,0,0,1-12.36834.44215H238.67235V27.13757h39.75341c5.88986,0,10.15942.14648,12.36834.58862A20.46266,20.46266,0,0,1,297.42,29.78773q6.62543,3.53312,6.62587,12.8096,0,9.27558-6.62587,12.80959A23.38419,23.38419,0,0,1,290.7941,57.61494Zm-46.52666,65.52088V122.842l-.14738-.14738Z"/><path d="M185.91156,95.13333H132.387l-7.92265,16.56422a13.82924,13.82924,0,0,0-1.63916,5.43514q0,3.796,5.76584,5.26259v2.7607H89.63921v-2.7607a10.43932,10.43932,0,0,0,5.26259-2.41562q1.81172-1.72544,4.14106-6.72921l43.30853-90.49932a17.22422,17.22422,0,0,0,2.07053-6.90175q0-3.96852-5.00378-5.694V7.39472h41.75565v2.7607q-5.09006,1.46663-5.09,5.09005a12.74454,12.74454,0,0,0,1.63917,5.69395l44.86143,90.75813q2.847,5.78022,5.00377,7.89389a10.95308,10.95308,0,0,0,5.78023,2.80384v2.7607H190.01666v-2.7607q5.71553-.949,5.70833-5.34887a13.81748,13.81748,0,0,0-1.72544-5.34886Zm-7.39783-16.13286L159.41887,37.05072l-19.404,41.94975Z"/><line class="cls-1" x1="385.90951" y1="23.89816" x2="344.53576" y2="57.61555"/><line class="cls-1" x1="318.91644" y1="78.52328" x2="314.64655" y2="82.05698"/></svg>