<svg width="1332" height="302" viewBox="0 0 1332 302" fill="none" xmlns="http://www.w3.org/2000/svg">
<path d="M735.562 278.14C734.739 276.927 734.326 275.482 734.385 274.017V194.509H708.618V274.017C708.702 275.44 708.286 276.846 707.44 277.993C706.704 279.023 705.231 279.76 703.171 280.348V282.999H739.833V280.348C738.257 279.954 736.795 279.197 735.562 278.14Z" fill="white"/>
<path d="M789.155 184.687V273.978C789.051 275.432 789.48 276.873 790.363 278.033C791.563 279.169 793.057 279.947 794.676 280.276V283.037H757.925V280.276C759.544 279.947 761.038 279.169 762.238 278.033C763.121 276.873 763.55 275.432 763.446 273.978V184.687H712.143C710.72 184.591 709.311 185.012 708.174 185.873C707.028 187.074 706.249 188.578 705.931 190.208H703.171V159.754H705.931C706.301 161.374 707.09 162.869 708.218 164.089C709.336 164.954 710.733 165.376 712.143 165.275H840.372C841.822 165.379 843.261 164.958 844.427 164.089C845.57 162.886 846.348 161.383 846.67 159.754H849.43V190.208H846.67C846.352 188.578 845.573 187.074 844.427 185.873C843.261 185.004 841.822 184.583 840.372 184.687L789.155 184.687Z" fill="white"/>
<path d="M876.558 165.247V167.897C878.084 168.138 879.512 168.801 880.681 169.811C881.172 170.231 881.569 170.75 881.848 171.333C882.127 171.916 882.281 172.551 882.3 173.197C882.3 174.375 881.123 176.732 878.767 180.118L856.976 211.627L845.491 194.547H816.043L843.871 233.712V273.908C843.955 275.399 843.483 276.868 842.546 278.031C841.356 279.15 839.877 279.914 838.276 280.239V283.037H875.086V280.239C873.497 279.879 872.028 279.119 870.816 278.031C869.993 276.818 869.58 275.373 869.638 273.908V233.713L907.625 180.118C909.868 176.741 912.485 173.629 915.429 170.842C917.313 169.252 919.611 168.23 922.054 167.897V165.247H876.558Z" fill="white"/>
<path d="M29.0737 196.837V268.442C28.9697 269.896 29.3991 271.337 30.2815 272.497C31.4812 273.634 32.9757 274.411 34.5951 274.74V277.501H0V274.74C1.61939 274.411 3.11387 273.634 4.3136 272.497C5.19596 271.337 5.62536 269.896 5.52141 268.442V168.712C5.61736 167.286 5.1877 165.874 4.3136 164.743C3.11388 163.607 1.61939 162.83 0 162.5L0 159.74H40.0302V162.5C37.5571 163.133 36.3205 164.456 36.3205 166.469C36.3205 167.849 37.1257 169.373 38.7361 171.041L103.699 238.592V168.712C103.795 167.286 103.365 165.874 102.491 164.743C101.291 163.607 99.7969 162.83 98.1775 162.5V159.74H132.773V162.5C131.153 162.83 129.659 163.607 128.459 164.743C127.585 165.874 127.155 167.286 127.251 168.712V268.442C127.147 269.896 127.577 271.337 128.459 272.497C129.659 273.634 131.153 274.411 132.773 274.74V277.501H95.6756V274.74C98.0912 274.223 99.299 272.986 99.299 271.031C99.299 269.88 97.8899 267.867 95.0717 264.992L29.0737 196.837Z" fill="white"/>
<path d="M231.514 252.546C231.189 254.147 230.424 255.626 229.306 256.817C228.765 257.291 228.134 257.653 227.451 257.881C226.769 258.108 226.047 258.197 225.33 258.141H149.503V277.43H225.33C226.047 277.374 226.769 277.463 227.452 277.691C228.134 277.918 228.765 278.28 229.306 278.755C230.424 279.945 231.189 281.424 231.514 283.025H234.312V252.546H231.514ZM227.244 180.401C228.363 181.591 229.128 183.069 229.453 184.67H232.25V154.192H229.453C229.128 155.793 228.363 157.271 227.244 158.461C226.703 158.936 226.073 159.298 225.39 159.526C224.708 159.753 223.987 159.842 223.269 159.787H149.503V179.222H223.269C225.036 179.222 226.361 179.517 227.244 180.401ZM201.331 227.075C202.419 228.286 203.179 229.756 203.539 231.344H206.337V201.603H203.539C203.214 203.203 202.449 204.682 201.331 205.872C200.447 206.756 199.122 207.05 197.355 207.05H149.503V225.896H197.355C199.122 225.896 200.447 226.191 201.331 227.075V227.075Z" fill="white"/>
<path d="M467.953 252.558C467.628 254.159 466.863 255.638 465.744 256.829C465.203 257.304 464.573 257.665 463.89 257.893C463.207 258.12 462.486 258.209 461.769 258.154H385.942V277.442H461.769C462.486 277.386 463.208 277.475 463.89 277.703C464.573 277.931 465.203 278.292 465.744 278.767C466.863 279.957 467.628 281.436 467.953 283.037H470.751V252.558H467.953ZM463.683 180.413C464.802 181.603 465.567 183.081 465.892 184.682H468.689V154.204H465.892C465.567 155.805 464.802 157.283 463.683 158.473C463.142 158.948 462.512 159.31 461.829 159.538C461.147 159.765 460.425 159.854 459.708 159.799H385.942V179.234H459.708C461.475 179.234 462.799 179.529 463.683 180.413ZM437.77 227.087C438.858 228.298 439.618 229.768 439.978 231.356H442.775V201.615H439.978C439.653 203.216 438.888 204.694 437.77 205.884C436.885 206.768 435.561 207.063 433.794 207.063H385.942V225.908H433.794C435.561 225.908 436.885 226.203 437.77 227.087L437.77 227.087Z" fill="white"/>
<path d="M355.932 237.051L372.323 261.596L370.08 263.156C368.47 261.653 367.147 260.903 366.112 260.906C365.076 260.906 362.172 262.288 357.398 265.054C347.506 270.762 339.181 274.611 332.423 276.6C324.567 278.732 316.448 279.736 308.31 279.584C289.732 279.584 274.491 275.184 262.585 266.384C255.673 261.385 250.005 254.861 246.021 247.318C241.324 238.478 238.921 228.599 239.033 218.589C239.033 204.326 243.203 191.931 251.543 181.406C264.081 165.59 283.032 157.681 308.396 157.681C317.713 157.681 325.708 158.659 332.379 160.615C339.051 162.57 347.391 166.423 357.398 172.175C362.172 174.878 365.077 176.23 366.112 176.23C367.147 176.23 368.47 175.482 370.08 173.987L372.323 175.54L355.932 200.127L353.602 198.581C353.707 197.812 353.764 197.036 353.775 196.259C353.747 195.374 353.542 194.504 353.172 193.7C352.801 192.896 352.273 192.175 351.618 191.579C349.298 189.491 346.717 187.712 343.94 186.288C334.092 180.647 322.937 177.685 311.588 177.696C298.129 177.696 287.403 181.056 279.408 187.776C269.976 195.655 265.26 205.941 265.26 218.632C265.26 231.329 269.976 241.614 279.408 249.489C287.403 256.211 298.129 259.571 311.588 259.568C322.942 259.578 334.098 256.603 343.94 250.941C346.717 249.51 349.298 247.727 351.618 245.636C352.273 245.036 352.802 244.31 353.172 243.503C353.543 242.695 353.748 241.822 353.775 240.934C353.766 240.183 353.708 239.434 353.602 238.691L355.932 237.051Z" fill="white"/>
<path d="M598.323 169.711L584.261 197.441L581.845 196.06C581.903 195.485 581.931 195.025 581.931 194.68C581.931 192.724 580.264 190.625 576.928 188.382C566.69 181.25 554.669 177.684 540.866 177.684C535.405 177.593 529.962 178.35 524.733 179.927C521.59 180.917 518.753 182.697 516.494 185.096C514.518 187.097 513.39 189.783 513.345 192.595C513.345 197.016 516.02 200.031 521.368 201.639C524.129 202.444 530.053 203.307 539.141 204.227L552.685 205.608C559.291 206.201 565.831 207.385 572.226 209.145C576.95 210.515 581.422 212.639 585.469 215.435C589.434 218.316 592.621 222.138 594.743 226.557C597.011 231.138 598.178 236.184 598.151 241.295C598.221 249.379 595.372 257.216 590.127 263.367C585.296 269.226 577.79 273.564 567.61 276.379C559.656 278.555 551.441 279.63 543.195 279.571C527.609 279.571 512.224 275.833 497.04 268.356C493.819 266.861 491.892 266.113 491.259 266.113C490.512 266.113 489.333 266.746 487.722 268.011L485.22 266.717L497.989 237.816L500.491 239.024V240.145C500.491 242.733 501.727 245.12 504.2 247.306C507.939 250.642 513.719 253.517 521.541 255.933C528.737 258.248 536.24 259.47 543.799 259.556C551.449 259.556 557.976 258.265 563.383 255.681C566.201 254.387 568.66 252.422 570.543 249.959C572.234 247.837 573.174 245.216 573.218 242.503C573.218 238.607 571.119 235.824 566.92 234.157C563.987 233.006 558.063 231.945 549.148 230.972L535.862 229.591C529.523 229.044 523.216 228.165 516.969 226.96C513.138 226.073 509.43 224.724 505.926 222.941C500.731 220.391 496.43 216.328 493.589 211.287C490.825 206.393 489.425 200.846 489.534 195.226C489.534 185.269 492.956 177.04 499.801 170.538C508.773 161.961 522.231 157.672 540.176 157.669C547.258 157.617 554.322 158.389 561.226 159.97C569.551 162.12 577.687 164.943 585.555 168.41C588.891 169.74 590.932 170.406 591.68 170.409C593.274 170.237 594.764 169.533 595.908 168.41L598.323 169.711Z" fill="white"/>
<path d="M682.7 215.417C678.617 212.668 674.152 210.535 669.448 209.085C663.034 207.347 656.483 206.165 649.866 205.552L636.32 204.227C627.338 203.344 621.302 202.46 618.652 201.577C613.204 200.104 610.553 197.012 610.553 192.595C610.613 189.794 611.715 187.116 613.645 185.086C615.92 182.707 618.755 180.935 621.891 179.932C627.148 178.387 632.608 177.643 638.087 177.724C651.927 177.724 663.854 181.258 674.16 188.325C677.547 190.68 679.166 192.742 679.166 194.656C679.183 195.151 679.134 195.647 679.019 196.129L681.522 197.454L695.509 169.773L693.154 168.448C691.986 169.548 690.482 170.222 688.883 170.362C688.147 170.362 686.086 169.773 682.7 168.448C674.83 164.99 666.708 162.135 658.405 159.908C651.491 158.392 644.429 157.651 637.35 157.699C631.618 157.671 625.896 158.214 620.271 159.32L611.436 176.399L597.45 204.08L596.713 205.552C596.744 205.578 596.767 205.615 596.798 205.641L592.59 213.944C595.255 217.834 598.916 220.936 603.191 222.925C606.666 224.766 610.384 226.104 614.234 226.901C620.457 228.166 626.751 229.051 633.081 229.551L646.333 231.024C655.314 231.908 661.203 232.938 664.148 234.116C668.271 235.882 670.479 238.533 670.479 242.508C670.429 245.232 669.499 247.866 667.829 250.018C665.901 252.428 663.428 254.345 660.614 255.613C655.166 258.263 648.688 259.588 641.031 259.588C637.428 259.581 633.831 259.282 630.276 258.693C626.526 258.063 622.827 257.165 619.205 256.006C619.066 255.962 618.938 255.952 618.798 255.907C616.297 255.16 613.84 254.275 611.436 253.256C609.809 260.144 606.581 266.55 602.014 271.956C610.854 275.491 620.123 277.84 629.58 278.942C629.624 278.947 629.668 278.957 629.712 278.963C633.274 279.38 636.856 279.596 640.443 279.612C648.697 279.618 656.916 278.529 664.884 276.373C675.043 273.575 682.552 269.158 687.411 263.416C692.605 257.234 695.424 249.404 695.362 241.33C695.378 236.227 694.219 231.19 691.976 226.606C689.837 222.18 686.653 218.34 682.7 215.417V215.417Z" fill="white"/>
<path d="M121.471 32.2905C116.344 23.34 108.433 16.3088 98.9432 12.2664C91.1401 9.02675 80.0972 7.40735 65.6683 7.40735H0V10.2049C1.63056 10.5696 3.14703 11.328 4.417 12.4138C5.26226 13.5603 5.6791 14.9667 5.5951 16.3886V116.069C5.65344 117.533 5.24052 118.978 4.417 120.191C3.14703 121.277 1.63056 122.035 0 122.4L0 125.197H65.6683C69.7904 125.197 73.7661 125.05 77.2997 124.755L89.0785 100.019C88.3774 100.561 87.6397 101.053 86.8705 101.492C81.5693 104.29 73.9135 105.762 63.6067 105.762H31.2143V26.8428H63.6067C71.4098 26.8428 77.7409 27.5788 82.4527 29.1982C87.0859 30.7828 91.2405 33.5189 94.5262 37.1496C100.416 43.922 103.508 53.6402 103.508 66.3024C103.532 67.6293 103.483 68.9565 103.361 70.2781L121.471 32.2905Z" fill="white"/>
<path d="M435.529 119.455C433.615 117.983 430.67 114.743 426.4 109.738L381.051 55.1122L421.099 22.8671L427.725 17.4194C431.848 14.0332 434.351 12.1191 435.234 11.5304C436.581 10.8726 438.021 10.4255 439.504 10.2049V7.40735H391.358V10.2049C394.744 10.7935 396.363 11.9717 396.363 13.5911C396.363 14.7692 395.332 16.0948 393.124 18.008L385.91 23.8979L344.536 57.6149L318.916 78.5233V80.4375L344.536 115.921V84.5597L362.351 70.1307L396.953 112.683C399.75 116.216 401.075 118.278 401.075 119.161C401.075 120.633 399.603 121.811 396.51 122.4V125.197H442.596V122.4C440.029 122.031 437.598 121.018 435.529 119.455V119.455Z" fill="white"/>
<path d="M329.37 120.044C327.456 118.424 324.511 114.743 320.536 109.002L297.567 76.4618C318.916 73.2221 329.665 62.0328 329.665 42.7447C329.73 37.3214 328.625 31.9477 326.425 26.9902C324.357 21.9802 320.814 17.7179 316.266 14.7692C312.064 12.0436 307.358 10.191 302.425 9.32151C295.376 8.11466 288.228 7.57248 281.077 7.70212H207.458V10.4997C209.059 10.8246 210.537 11.5892 211.728 12.7077C212.664 13.8707 213.136 15.3398 213.052 16.8307V59.5291L238.672 111.799V77.4926H270.18L294.033 112.093C296.684 116.069 298.009 118.572 298.009 119.602C298.009 121.222 296.537 122.252 293.592 122.842V125.492H336.143V122.842C333.645 122.656 331.272 121.675 329.37 120.044V120.044ZM290.794 57.6149C286.682 57.9825 282.553 58.1301 278.426 58.0571H238.672V27.1376H278.426C284.316 27.1376 288.585 27.2841 290.794 27.7262C293.104 28.0311 295.345 28.7283 297.42 29.7877C301.837 32.1432 304.046 36.413 304.046 42.5973C304.046 48.7811 301.837 53.0509 297.42 55.4069C295.334 56.4705 293.101 57.2148 290.794 57.6149V57.6149ZM244.267 123.136V122.842L244.12 122.695L244.267 123.136Z" fill="white"/>
<path d="M185.912 95.1333H132.387L124.464 111.698C123.548 113.376 122.99 115.227 122.825 117.133C122.825 119.663 124.747 121.418 128.591 122.395V125.156H89.6392V122.395C91.5861 122.102 93.4105 121.265 94.9018 119.98C96.1096 118.829 97.49 116.586 99.0429 113.25L142.351 22.7511C143.52 20.6223 144.226 18.2702 144.422 15.8494C144.422 13.2037 142.754 11.3057 139.418 10.1554V7.39471H181.174V10.1554C177.78 11.1332 176.084 12.8299 176.084 15.2455C176.175 17.2459 176.737 19.1966 177.723 20.9394L222.584 111.698C224.482 115.551 226.15 118.182 227.588 119.591C229.191 121.083 231.205 122.059 233.368 122.395V125.156H190.017V122.395C193.827 121.763 195.73 119.98 195.725 117.046C195.522 115.164 194.935 113.343 194 111.698L185.912 95.1333ZM178.514 79.0005L159.419 37.0507L140.015 79.0005H178.514Z" fill="white"/>
<path d="M996.454 197.965C996.454 207.459 993.655 215.595 988.318 221.471C985.384 224.776 981.693 227.32 977.56 228.886C972.887 230.68 967.916 231.57 962.911 231.508H946.999V164.421H962.911C967.92 164.316 972.899 165.207 977.56 167.043C981.692 168.611 985.383 171.155 988.318 174.459C993.655 180.334 996.454 188.47 996.454 197.965ZM985.968 197.965C985.968 191.092 984.072 185.4 980.542 181.509C976.568 177.081 970.687 174.908 962.911 174.908H957.491V221.022H962.911C970.687 221.022 976.568 218.76 980.542 214.42C984.072 210.53 985.968 204.743 985.968 197.965H985.968Z" fill="white"/>
<path d="M1033.47 191.729H1057.97V201.218H1033.47V222.014H1063.21V231.508H1022.98V164.421H1063.21V173.827H1033.47V191.729Z" fill="white"/>
<path d="M1126.08 218.034C1124.19 224.547 1118.31 229.701 1110.98 231.148C1109.64 231.402 1108.28 231.523 1106.92 231.508C1104.2 231.526 1101.5 231.035 1098.96 230.061C1094.55 228.248 1090.71 225.28 1087.84 221.471L1096.16 214.964C1097.81 217.31 1100.1 219.13 1102.76 220.207C1104.71 221.011 1106.85 221.2 1108.91 220.75C1112.34 220.118 1115.14 217.857 1115.96 215.141C1116.86 212.07 1114.78 209.355 1112.89 207.548C1109.9 204.743 1105.02 199.955 1104.66 199.594L1096.43 191.818C1094.06 189.615 1092.29 186.846 1091.28 183.77C1090.36 181.022 1090.29 178.059 1091.09 175.274C1091.96 172.33 1093.69 169.716 1096.06 167.769C1098.37 165.828 1101.15 164.52 1104.11 163.972C1107.43 163.262 1110.88 163.512 1114.06 164.693C1117.63 166.141 1120.77 168.476 1123.19 171.477L1114.96 178.073C1111.53 173.916 1108 173.916 1106.1 174.276C1105.02 174.431 1103.99 174.873 1103.13 175.557C1102.27 176.241 1101.61 177.142 1101.22 178.167C1100.86 179.431 1100.95 181.509 1103.75 184.225L1114.96 194.983C1116.59 196.607 1118.58 198.508 1120.02 199.866C1122.73 202.213 1124.76 205.24 1125.91 208.634C1126.91 211.678 1126.97 214.955 1126.08 218.034V218.034Z" fill="white"/>
<path d="M1151.88 231.508V164.421H1162.37V231.508H1151.88Z" fill="white"/>
<path d="M1243.03 206.195V224.364L1240.68 225.993C1240.59 225.993 1240.59 225.993 1240.5 226.082C1240.4 226.179 1240.27 226.243 1240.14 226.265C1240.05 226.353 1239.96 226.448 1239.87 226.448C1239.83 226.502 1239.77 226.546 1239.71 226.577C1239.64 226.607 1239.58 226.624 1239.51 226.625C1239.4 226.738 1239.28 226.83 1239.14 226.897C1239.06 226.985 1238.96 226.985 1238.87 227.08C1238.78 227.168 1238.69 227.168 1238.6 227.257C1238.42 227.351 1238.33 227.351 1238.15 227.44C1238.06 227.528 1237.97 227.529 1237.88 227.623C1237.76 227.734 1237.59 227.797 1237.43 227.8L1237.24 227.983H1237.07C1236.93 228.092 1236.77 228.183 1236.61 228.255C1236.43 228.343 1236.16 228.432 1235.98 228.526L1235.89 228.615C1232.09 230.307 1228.02 231.287 1223.86 231.508H1222.15C1218.55 231.533 1214.97 230.952 1211.57 229.79H1211.48C1211.12 229.701 1210.84 229.518 1210.48 229.43C1210.03 229.247 1209.58 229.069 1209.13 228.886C1207.99 228.452 1206.9 227.906 1205.87 227.257C1203.12 225.789 1200.62 223.898 1198.46 221.653C1195.38 218.601 1192.92 214.977 1191.22 210.984C1189.92 207.905 1189.1 204.643 1188.79 201.312C1188.7 200.226 1188.6 199.051 1188.6 197.965V196.247C1188.84 192.331 1189.73 188.482 1191.22 184.857C1192.94 180.876 1195.39 177.256 1198.46 174.187C1204.75 167.93 1213.27 164.419 1222.15 164.421H1223.86C1224.14 164.407 1224.41 164.437 1224.68 164.51C1228.58 164.769 1232.41 165.718 1235.98 167.315C1235.98 167.326 1235.98 167.338 1235.99 167.349C1235.99 167.36 1236 167.37 1236.01 167.378C1236.01 167.386 1236.02 167.393 1236.03 167.397C1236.05 167.401 1236.06 167.404 1236.07 167.403C1236.25 167.497 1236.43 167.586 1236.61 167.675H1236.71V180.062C1235.33 178.912 1233.81 177.94 1232.18 177.169C1230.84 176.54 1229.45 176.026 1228.03 175.634C1227.98 175.64 1227.93 175.636 1227.88 175.62C1227.83 175.605 1227.79 175.579 1227.75 175.545H1227.48C1227.39 175.451 1227.3 175.451 1227.12 175.451C1227.05 175.445 1226.99 175.413 1226.94 175.362C1226.58 175.274 1226.13 175.274 1225.77 175.179H1225.58C1225.49 175.179 1225.31 175.091 1225.22 175.091H1225.04C1224.91 175.104 1224.78 175.073 1224.68 175.002H1223.86C1223.78 175.002 1223.69 174.908 1223.59 174.908H1222.15C1217.97 174.872 1213.87 176 1210.3 178.167C1210.16 178.275 1210.01 178.366 1209.85 178.438C1208.39 179.342 1207.05 180.436 1205.87 181.692C1205.46 182.06 1205.07 182.452 1204.7 182.867C1204.7 182.879 1204.7 182.89 1204.69 182.901C1204.69 182.912 1204.68 182.922 1204.67 182.93C1204.66 182.938 1204.65 182.945 1204.64 182.949C1204.63 182.954 1204.62 182.956 1204.61 182.956C1204.19 183.476 1203.79 184.02 1203.43 184.585C1203.34 184.674 1203.25 184.762 1203.25 184.762C1203.07 185.034 1202.89 185.306 1202.71 185.577C1202.61 185.679 1202.55 185.806 1202.53 185.943C1201.2 188.054 1200.26 190.377 1199.73 192.81C1199.63 192.904 1199.63 192.904 1199.63 192.993C1199.45 193.896 1199.27 194.8 1199.18 195.703V196.701C1199.11 197.118 1199.08 197.542 1199.09 197.965C1199.08 198.358 1199.11 198.752 1199.18 199.14C1199.27 200.853 1199.54 202.552 1200 204.206C1201.36 209.034 1204.26 213.286 1208.26 216.32C1212.25 219.354 1217.13 221.005 1222.15 221.022H1222.78C1222.83 221.028 1222.88 221.023 1222.92 221.007C1222.97 220.99 1223.01 220.963 1223.05 220.927H1224.41C1224.41 220.839 1224.5 220.839 1224.59 220.839H1225.13C1225.77 220.75 1226.49 220.567 1227.12 220.478C1227.21 220.478 1227.21 220.478 1227.3 220.39C1227.43 220.404 1227.56 220.37 1227.66 220.295H1227.93C1227.97 220.262 1228.01 220.237 1228.06 220.221C1228.11 220.206 1228.15 220.201 1228.2 220.207C1228.31 220.137 1228.44 220.106 1228.56 220.118C1228.63 220.109 1228.7 220.075 1228.75 220.024C1230.03 219.676 1231.27 219.191 1232.45 218.577H1232.54V206.195H1219.88V196.701H1243.03V206.195Z" fill="white"/>
<path d="M1279.51 188.382V231.508H1269.01V161.257L1311.15 207.459V164.421H1321.73V234.584L1279.51 188.382Z" fill="white"/>
</svg>
