<svg id="Слой_1" data-name="Слой 1" xmlns="http://www.w3.org/2000/svg" xmlns:xlink="http://www.w3.org/1999/xlink" viewBox="0 0 255.7923 117.00509"><defs><style>.cls-1{fill:url(#Безымянный_градиент_61);}.cls-2{fill:url(#Безымянный_градиент_20);}.cls-3{fill:url(#Безымянный_градиент_7);}.cls-4{fill:url(#Безымянный_градиент_8);}.cls-5{fill:url(#Безымянный_градиент_6);}.cls-6{fill:url(#Безымянный_градиент_34);}.cls-7{fill:url(#Безымянный_градиент_20-2);}.cls-8{fill:url(#Безымянный_градиент_36);}.cls-9{fill:url(#Безымянный_градиент_37);}</style><linearGradient id="Безымянный_градиент_61" x1="127.49506" y1="0.73986" x2="128.27382" y2="112.88084" gradientUnits="userSpaceOnUse"><stop offset="0"/><stop offset="0.5" stop-color="#878787"/><stop offset="1"/></linearGradient><linearGradient id="Безымянный_градиент_20" y1="87.74985" x2="127.91203" y2="87.74985" gradientUnits="userSpaceOnUse"><stop offset="0" stop-color="#878787"/><stop offset="1"/></linearGradient><linearGradient id="Безымянный_градиент_7" x1="127.91211" y1="29.24731" x2="255.7923" y2="29.24731" gradientUnits="userSpaceOnUse"><stop offset="0"/><stop offset="1" stop-color="#878787"/></linearGradient><linearGradient id="Безымянный_градиент_8" x1="13.18073" y1="81.38207" x2="118.62645" y2="81.38207" xlink:href="#Безымянный_градиент_7"/><linearGradient id="Безымянный_градиент_6" x1="-1.2815" y1="67.21139" x2="250.43539" y2="62.65955" xlink:href="#Безымянный_градиент_7"/><linearGradient id="Безымянный_градиент_34" x1="156.67825" y1="81.24896" x2="242.80943" y2="9.98935" gradientUnits="userSpaceOnUse"><stop offset="0"/><stop offset="0.12849" stop-color="#878787"/><stop offset="0.71103"/></linearGradient><linearGradient id="Безымянный_градиент_20-2" x1="-1.51819" y1="54.12265" x2="250.19871" y2="49.57081" xlink:href="#Безымянный_градиент_20"/><linearGradient id="Безымянный_градиент_36" x1="80.36327" y1="1.06716" x2="81.14203" y2="113.20815" gradientUnits="userSpaceOnUse"><stop offset="0"/><stop offset="0.5" stop-color="#878787"/><stop offset="0.88365"/></linearGradient><linearGradient id="Безымянный_градиент_37" x1="174.6066" y1="0.4127" x2="175.38535" y2="112.55368" xlink:href="#Безымянный_градиент_61"/></defs><title>Logo-icon</title><path class="cls-1" d="M195.99351,116.97719H153.82117l-19.77468-28.6445L120.82593,69.199,102.08255,42.03262V51.46C96.811,45.24021,88.49938,36.90067,78.29132,31.657V2.98445A68.18125,68.18125,0,0,0,59.79887.028H101.9433L123.58716,31.378,136.0546,49.42394l17.62731,25.54859V67.35819c5.24363,5.96883,13.58317,14.05728,23.79157,19.3009v27.44536A70.5411,70.5411,0,0,0,195.99351,116.97719Z"/><path class="cls-2" d="M95.20578,92.10305C84.72806,99.00563,72.372,104.26951,58.95562,104.26951A45.7754,45.7754,0,0,1,13.18073,58.49462H0a58.5086,58.5086,0,0,0,58.51062,58.51045c13.18107,0,25.56952-3.99664,36.69516-9.85175Z"/><path class="cls-3" d="M197.282,0a70.06944,70.06944,0,0,0-22.72521,3.96753v14.49A56.20484,56.20484,0,0,1,197.123,13.45107a45.06319,45.06319,0,0,1,45.07556,45.04355h13.59373A58.50515,58.50515,0,0,0,197.282,0Z"/><path class="cls-4" d="M95.20578,74.43267c-8.916,8.28524-21.70107,16.95811-36.18649,16.95811A32.40429,32.40429,0,0,1,26.60013,59.00346c0-.175,0-.334.01566-.50884H13.18073a45.7754,45.7754,0,0,0,45.77489,45.77489c13.41634,0,25.77244-5.26388,36.25016-12.16646Z"/><path class="cls-5" d="M255.7923,58.49466A58.50849,58.50849,0,0,1,197.282,117.00509c-28.39662,0-53.20012-18.44347-69.338-34.43844l-.03183-.03183-9.2855-10.84353L108.27616,59.60765l-.06366-.09539c-1.27185-1.9398-22.11636-32.92806-49.19339-32.92806A32.4055,32.4055,0,0,0,26.616,58.49466H13.18089a45.76175,45.76175,0,0,1,45.77475-45.759c25.646,0,47.36471,19.6996,59.41672,33.48451a125.47947,125.47947,0,0,1,10.2074,13.13306,121.333,121.333,0,0,0,9.6989,12.036c11.861,13.10123,33.50052,32.18073,58.84436,32.18073a45.09019,45.09019,0,0,0,45.07526-45.07527Z"/><path class="cls-6" d="M197.123,13.45107a56.20484,56.20484,0,0,0-22.56621,5.00648V33.13483c6.83636-4.13232,14.64068-7.07537,23.04322-7.07537a32.92135,32.92135,0,0,1,32.91216,32.43516h11.68639A45.06319,45.06319,0,0,0,197.123,13.45107Z"/><path class="cls-7" d="M242.19828,58.49466A45.09019,45.09019,0,0,1,197.123,103.56993c-25.34384,0-46.98334-19.0795-58.84436-32.18073a121.333,121.333,0,0,1-9.6989-12.036,125.47947,125.47947,0,0,0-10.2074-13.13306c-12.052-13.78491-33.77069-33.48451-59.41672-33.48451a45.76175,45.76175,0,0,0-45.77475,45.759H.00008A58.50518,58.50518,0,0,1,58.51041.00005c28.55577,0,53.29541,19.07949,69.4017,35.64693l9.74644,11.89285,9.85786,12.05191.06347.09539c1.30368,1.892,22.68873,32.22848,50.0202,32.22848a32.91,32.91,0,0,0,32.928-32.91215c0-.175,0-.33393-.01592-.5088Z"/><path class="cls-8" d="M102.08255,51.46v65.51722H59.79887a69.22331,69.22331,0,0,0,18.49245-2.90066V31.657C88.49938,36.90067,96.811,45.24021,102.08255,51.46Z"/><path class="cls-9" d="M195.99351.028a68.37831,68.37831,0,0,0-18.52,2.9565V86.65909c-10.2084-5.24362-18.54794-13.33207-23.79157-19.3009V.028Z"/></svg>