<svg width="1413" height="277" viewBox="0 0 1413 277" fill="none" xmlns="http://www.w3.org/2000/svg">
<path d="M527.15 228.615C527.15 240.93 523.52 251.484 516.596 259.105C512.791 263.392 508.003 266.693 502.642 268.724C496.581 271.051 490.133 272.205 483.641 272.125H463V185.105H483.641C490.137 184.968 496.596 186.124 502.642 188.506C508.001 190.54 512.789 193.84 516.596 198.125C523.52 205.746 527.15 216.3 527.15 228.615ZM513.548 228.615C513.548 219.7 511.089 212.317 506.51 207.27C501.355 201.526 493.727 198.707 483.641 198.707H476.609V258.523H483.641C493.727 258.523 501.355 255.589 506.51 249.96C511.089 244.913 513.548 237.408 513.548 228.615Z" fill="white"/>
<path d="M575.168 220.527H606.945V232.835H575.168V259.809H613.746V272.125H561.559V185.105H613.746V197.305H575.168V220.527Z" fill="white"/>
<path d="M695.295 254.648C692.836 263.095 685.208 269.781 675.711 271.658C673.972 271.988 672.204 272.144 670.434 272.125C666.906 272.148 663.404 271.512 660.11 270.249C654.389 267.896 649.408 264.047 645.688 259.105L656.479 250.665C658.62 253.708 661.593 256.07 665.042 257.466C667.565 258.509 670.347 258.755 673.015 258.17C677.472 257.351 681.103 254.418 682.16 250.895C683.331 246.912 680.635 243.389 678.177 241.045C674.302 237.408 667.968 231.196 667.501 230.729L656.832 220.642C653.756 217.784 651.455 214.192 650.145 210.203C648.956 206.638 648.873 202.795 649.908 199.182C651.034 195.364 653.28 191.973 656.357 189.448C659.352 186.93 662.949 185.233 666.796 184.523C671.099 183.601 675.576 183.926 679.701 185.458C684.332 187.336 688.407 190.365 691.542 194.257L680.873 202.813C676.415 197.421 671.843 197.421 669.377 197.888C666.329 198.477 663.748 200.469 663.043 202.935C662.576 204.574 662.691 207.27 666.329 210.793L680.873 224.747C682.979 226.854 685.56 229.32 687.437 231.081C690.947 234.125 693.58 238.052 695.064 242.455C696.368 246.403 696.448 250.653 695.295 254.648Z" fill="white"/>
<path d="M728.754 272.125V185.105H742.363V272.125H728.754Z" fill="white"/>
<path d="M846.989 239.291V262.858L843.941 264.971C843.826 264.971 843.826 264.971 843.711 265.086C843.581 265.213 843.415 265.296 843.237 265.324C843.122 265.439 843.007 265.561 842.891 265.561C842.834 265.631 842.761 265.688 842.68 265.728C842.598 265.768 842.508 265.789 842.417 265.791C842.285 265.937 842.127 266.057 841.95 266.143C841.835 266.258 841.712 266.258 841.597 266.381C841.482 266.496 841.36 266.496 841.245 266.611C841.008 266.733 840.893 266.733 840.663 266.848C840.541 266.963 840.426 266.963 840.31 267.085C840.147 267.229 839.939 267.311 839.721 267.315L839.484 267.552H839.254C839.073 267.694 838.875 267.812 838.664 267.905C838.434 268.02 838.082 268.135 837.845 268.257L837.73 268.372C832.802 270.566 827.515 271.838 822.129 272.125H819.9C815.235 272.158 810.598 271.404 806.183 269.896H806.061C805.593 269.781 805.241 269.544 804.774 269.429C804.184 269.192 803.602 268.962 803.012 268.724C801.539 268.161 800.125 267.453 798.792 266.611C795.225 264.707 791.978 262.254 789.173 259.342C785.175 255.383 781.988 250.682 779.791 245.503C778.097 241.509 777.03 237.277 776.627 232.957C776.512 231.548 776.39 230.024 776.39 228.615V226.386C776.699 221.307 777.848 216.315 779.791 211.612C782.017 206.448 785.2 201.753 789.173 197.773C797.339 189.656 808.386 185.102 819.9 185.105H822.129C822.485 185.086 822.842 185.125 823.185 185.22C828.249 185.556 833.212 186.788 837.845 188.858C837.844 188.873 837.847 188.888 837.853 188.902C837.858 188.916 837.867 188.929 837.877 188.94C837.888 188.951 837.901 188.959 837.915 188.965C837.929 188.971 837.944 188.973 837.96 188.973C838.197 189.095 838.434 189.21 838.664 189.325H838.786V205.393C836.996 203.902 835.025 202.641 832.92 201.641C831.183 200.824 829.379 200.158 827.528 199.649C827.464 199.657 827.4 199.651 827.339 199.632C827.278 199.612 827.222 199.578 827.175 199.534H826.823C826.701 199.412 826.586 199.412 826.349 199.412C826.26 199.404 826.178 199.363 826.119 199.297C825.651 199.182 825.062 199.182 824.595 199.06H824.357C824.242 199.06 824.005 198.945 823.89 198.945H823.653C823.488 198.962 823.323 198.921 823.185 198.83H822.129C822.014 198.83 821.899 198.707 821.776 198.707H819.9C814.485 198.661 809.165 200.124 804.536 202.935C804.357 203.075 804.161 203.193 803.954 203.287C802.054 204.459 800.318 205.878 798.792 207.507C798.254 207.984 797.745 208.493 797.268 209.031C797.268 209.047 797.266 209.062 797.26 209.076C797.254 209.09 797.246 209.103 797.235 209.113C797.224 209.124 797.211 209.133 797.197 209.138C797.183 209.144 797.168 209.147 797.153 209.146C796.605 209.821 796.096 210.527 795.629 211.26C795.507 211.375 795.392 211.49 795.392 211.49C795.154 211.842 794.924 212.195 794.687 212.547C794.563 212.679 794.481 212.843 794.45 213.021C792.737 215.76 791.509 218.773 790.819 221.929C790.697 222.051 790.697 222.051 790.697 222.166C790.467 223.338 790.23 224.51 790.115 225.682V226.976C790.019 227.517 789.981 228.066 790 228.615C789.985 229.126 790.023 229.637 790.115 230.139C790.226 232.362 790.58 234.565 791.171 236.71C792.941 242.973 796.702 248.489 801.885 252.425C807.068 256.36 813.392 258.501 819.9 258.523H820.72C820.784 258.531 820.849 258.525 820.91 258.503C820.971 258.482 821.027 258.447 821.072 258.4H822.833C822.833 258.285 822.948 258.285 823.07 258.285H823.775C824.595 258.17 825.529 257.933 826.349 257.818C826.471 257.818 826.471 257.818 826.586 257.703C826.752 257.721 826.918 257.678 827.053 257.581H827.406C827.453 257.538 827.508 257.505 827.569 257.485C827.63 257.465 827.694 257.459 827.758 257.466C827.896 257.375 828.061 257.335 828.225 257.351C828.316 257.339 828.4 257.296 828.462 257.229C830.128 256.777 831.741 256.148 833.272 255.352H833.387V239.291H816.967V226.976H846.989V239.291Z" fill="white"/>
<path d="M894.302 216.185V272.125H880.693V181L935.346 240.93V185.105H949.071V276.115L894.302 216.185Z" fill="white"/>
<path d="M1225.56 123.948C1224.74 122.735 1224.33 121.29 1224.38 119.826V40.3169H1198.62V119.826C1198.7 121.248 1198.29 122.654 1197.44 123.801C1196.7 124.831 1195.23 125.568 1193.17 126.157V128.807H1229.83V126.157C1228.26 125.762 1226.79 125.005 1225.56 123.948Z" fill="white"/>
<path d="M1279.16 30.4949V119.786C1279.05 121.24 1279.48 122.681 1280.36 123.841C1281.56 124.978 1283.06 125.755 1284.68 126.084V128.845H1247.92V126.084C1249.54 125.755 1251.04 124.978 1252.24 123.841C1253.12 122.681 1253.55 121.24 1253.45 119.786V30.4949H1202.14C1200.72 30.3994 1199.31 30.8206 1198.17 31.6811C1197.03 32.882 1196.25 34.3865 1195.93 36.0163H1193.17V5.56226H1195.93C1196.3 7.18232 1197.09 8.67706 1198.22 9.89742C1199.34 10.7622 1200.73 11.1846 1202.14 11.0837H1330.37C1331.82 11.187 1333.26 10.766 1334.43 9.89742C1335.57 8.69432 1336.35 7.19079 1336.67 5.56226H1339.43V36.0163H1336.67C1336.35 34.3865 1335.57 32.882 1334.43 31.6811C1333.26 30.8125 1331.82 30.3916 1330.37 30.4949H1279.16Z" fill="white"/>
<path d="M1366.56 11.0549V13.7051C1368.08 13.9462 1369.51 14.6092 1370.68 15.6193C1371.17 16.0396 1371.57 16.558 1371.85 17.1412C1372.13 17.7243 1372.28 18.3593 1372.3 19.0054C1372.3 20.1836 1371.12 22.5399 1368.77 25.9261L1346.98 57.4351L1335.49 40.355H1306.04L1333.87 79.5207V119.716C1333.96 121.207 1333.48 122.677 1332.55 123.839C1331.36 124.958 1329.88 125.723 1328.28 126.047V128.845H1365.09V126.047C1363.5 125.687 1362.03 124.927 1360.82 123.839C1359.99 122.626 1359.58 121.181 1359.64 119.716V79.5207L1397.63 25.9261C1399.87 22.5492 1402.49 19.4374 1405.43 16.6501C1407.31 15.0599 1409.61 14.0386 1412.05 13.7051V11.0549H1366.56Z" fill="white"/>
<path d="M519.074 42.6448V114.251C518.97 115.704 519.399 117.146 520.281 118.305C521.481 119.442 522.976 120.219 524.595 120.548V123.309H490V120.548C491.619 120.219 493.114 119.442 494.314 118.305C495.196 117.146 495.625 115.704 495.521 114.251V14.5202C495.617 13.0942 495.188 11.6824 494.314 10.5517C493.114 9.41516 491.619 8.63802 490 8.30856V5.54785H530.03V8.30856C527.557 8.94123 526.321 10.2641 526.321 12.2771C526.321 13.6574 527.126 15.1816 528.736 16.8495L593.699 84.4005V14.5202C593.795 13.0942 593.365 11.6824 592.491 10.5517C591.291 9.41517 589.797 8.63805 588.178 8.30861V5.5479H622.773V8.30861C621.153 8.63805 619.659 9.41517 618.459 10.5517C617.585 11.6824 617.155 13.0942 617.251 14.5202V114.251C617.147 115.704 617.577 117.146 618.459 118.305C619.659 119.442 621.153 120.219 622.773 120.548V123.309H585.676V120.548C588.091 120.031 589.299 118.794 589.299 116.839C589.299 115.688 587.89 113.675 585.072 110.8L519.074 42.6448Z" fill="white"/>
<path d="M721.514 98.3546C721.189 99.9555 720.424 101.434 719.306 102.625C718.765 103.1 718.134 103.461 717.451 103.689C716.769 103.916 716.047 104.005 715.33 103.95H639.503V123.238H715.33C716.047 123.183 716.769 123.271 717.452 123.499C718.134 123.727 718.765 124.088 719.306 124.563C720.424 125.754 721.189 127.232 721.514 128.833H724.312V98.3546H721.514ZM717.244 26.2087C718.363 27.3988 719.128 28.8774 719.453 30.4783H722.25V0H719.453C719.128 1.60092 718.363 3.07948 717.244 4.26956C716.703 4.74427 716.073 5.10609 715.39 5.33372C714.708 5.56136 713.987 5.65022 713.269 5.59509H639.503V25.0306H713.269C715.036 25.0306 716.361 25.3253 717.244 26.2087ZM691.331 72.8827C692.419 74.0945 693.179 75.5642 693.539 77.1523H696.337V47.4109H693.539C693.214 49.0117 692.449 50.4902 691.331 51.6805C690.447 52.5639 689.122 52.8587 687.355 52.8587H639.503V71.7046H687.355C689.122 71.7046 690.447 71.9994 691.331 72.8828V72.8827Z" fill="white"/>
<path d="M957.953 98.3668C957.628 99.9677 956.863 101.446 955.744 102.637C955.203 103.112 954.573 103.474 953.89 103.701C953.207 103.929 952.486 104.017 951.769 103.962H875.942V123.25H951.769C952.486 123.195 953.208 123.284 953.89 123.511C954.573 123.739 955.203 124.101 955.744 124.575C956.863 125.766 957.628 127.244 957.953 128.845H960.751V98.3668H957.953ZM953.683 26.2209C954.802 27.411 955.567 28.8896 955.892 30.4905H958.689V0.012207H955.892C955.567 1.61312 954.802 3.09169 953.683 4.28177C953.142 4.75648 952.512 5.1183 951.829 5.34593C951.147 5.57357 950.425 5.66244 949.708 5.60732H875.942V25.0428H949.708C951.475 25.0428 952.799 25.3375 953.683 26.2209ZM927.77 72.8949C928.858 74.1067 929.618 75.5764 929.978 77.1645H932.775V47.4232H929.978C929.653 49.0239 928.888 50.5024 927.77 51.6927C926.885 52.5761 925.561 52.8709 923.794 52.8709H875.942V71.7168H923.794C925.561 71.7168 926.885 72.0116 927.77 72.895V72.8949Z" fill="white"/>
<path d="M845.932 82.8597L862.323 107.404L860.08 108.964C858.47 107.462 857.147 106.712 856.112 106.714C855.077 106.714 852.172 108.097 847.398 110.862C837.506 116.57 829.181 120.419 822.423 122.408C814.567 124.54 806.448 125.545 798.31 125.392C779.732 125.392 764.491 120.992 752.585 112.192C745.673 107.193 740.005 100.669 736.021 93.1261C731.324 84.2857 728.921 74.4077 729.033 64.3975C729.033 50.1339 733.203 37.7395 741.543 27.2143C754.081 11.3978 773.032 3.4895 798.396 3.4895C807.713 3.4895 815.708 4.46726 822.38 6.42276C829.051 8.37826 837.391 12.2317 847.398 17.9832C852.172 20.6864 855.077 22.038 856.112 22.038C857.147 22.038 858.47 21.2903 860.08 19.7949L862.323 21.3478L845.932 45.9353L843.602 44.3896C843.707 43.6198 843.764 42.8443 843.775 42.0675C843.747 41.1826 843.542 40.3124 843.172 39.5084C842.801 38.7044 842.273 37.983 841.618 37.3872C839.298 35.2989 836.717 33.5203 833.94 32.0959C824.092 26.4551 812.937 23.493 801.588 23.5046C788.13 23.5046 777.403 26.8644 769.408 33.584C759.976 41.4636 755.26 51.7491 755.26 64.4407C755.26 77.137 759.976 87.4226 769.408 95.2973C777.403 102.019 788.129 105.379 801.588 105.377C812.942 105.386 824.098 102.411 833.94 96.7495C836.717 95.3186 839.298 93.5353 841.618 91.4438C842.273 90.8438 842.802 90.1187 843.172 89.3111C843.543 88.5036 843.748 87.63 843.775 86.742C843.766 85.9913 843.709 85.242 843.602 84.4989L845.932 82.8597Z" fill="white"/>
<path d="M1088.32 15.5195L1074.26 43.2488L1071.85 41.8684C1071.9 41.2933 1071.93 40.8332 1071.93 40.4881C1071.93 38.5326 1070.26 36.4333 1066.93 34.1902C1056.69 27.0584 1044.67 23.4925 1030.87 23.4925C1025.4 23.4015 1019.96 24.1582 1014.73 25.7356C1011.59 26.7253 1008.75 28.5051 1006.49 30.9047C1004.52 32.9054 1003.39 35.5914 1003.35 38.4032C1003.35 42.8246 1006.02 45.8393 1011.37 47.4474C1014.13 48.2526 1020.05 49.1153 1029.14 50.0355L1042.69 51.4159C1049.29 52.0095 1055.83 53.1933 1062.23 54.953C1066.95 56.3228 1071.42 58.447 1075.47 61.2437C1079.43 64.1247 1082.62 67.9467 1084.74 72.3656C1087.01 76.9459 1088.18 81.9927 1088.15 87.1037C1088.22 95.1869 1085.37 103.024 1080.13 109.175C1075.3 115.034 1067.79 119.372 1057.61 122.188C1049.66 124.364 1041.44 125.438 1033.2 125.38C1017.61 125.38 1002.22 121.641 987.04 114.164C983.819 112.669 981.892 111.921 981.259 111.921C980.512 111.921 979.333 112.554 977.722 113.819L975.22 112.525L987.989 83.6241L990.491 84.8319V85.9534C990.491 88.5416 991.727 90.9285 994.2 93.114C997.939 96.4499 1003.72 99.3256 1011.54 101.741C1018.74 104.057 1026.24 105.278 1033.8 105.365C1041.45 105.365 1047.98 104.073 1053.38 101.49C1056.2 100.195 1058.66 98.2304 1060.54 95.7669C1062.23 93.6452 1063.17 91.0238 1063.22 88.3116C1063.22 84.415 1061.12 81.6327 1056.92 79.9648C1053.99 78.8145 1048.06 77.7529 1039.15 76.7799L1025.86 75.3996C1019.52 74.852 1013.22 73.9737 1006.97 72.7683C1003.14 71.8814 999.43 70.5319 995.926 68.7494C990.731 66.1995 986.43 62.1366 983.589 57.0954C980.825 52.2008 979.425 46.6544 979.534 41.0344C979.534 31.0772 982.956 22.8478 989.801 16.3463C998.773 7.7694 1012.23 3.47977 1030.18 3.47737C1037.26 3.42479 1044.32 4.19685 1051.23 5.77795C1059.55 7.92835 1067.69 10.751 1075.55 14.2182C1078.89 15.5482 1080.93 16.2144 1081.68 16.2169C1083.27 16.0458 1084.76 15.3415 1085.91 14.2182L1088.32 15.5195Z" fill="white"/>
<path d="M1172.7 61.2253C1168.62 58.4767 1164.15 56.3432 1159.45 54.8933C1153.03 53.1555 1146.48 51.9733 1139.87 51.3598L1126.32 50.0351C1117.34 49.1517 1111.3 48.2683 1108.65 47.385C1103.2 45.912 1100.55 42.8206 1100.55 38.4028C1100.61 35.6022 1101.72 32.9247 1103.65 30.8944C1105.92 28.5147 1108.75 26.7429 1111.89 25.7406C1117.15 24.1954 1122.61 23.451 1128.09 23.5326C1141.93 23.5326 1153.85 27.0661 1164.16 34.1332C1167.55 36.4886 1169.17 38.5502 1169.17 40.4643C1169.18 40.9597 1169.13 41.4551 1169.02 41.9373L1171.52 43.2619L1185.51 15.5812L1183.15 14.2565C1181.99 15.3562 1180.48 16.0305 1178.88 16.1707C1178.15 16.1707 1176.09 15.5812 1172.7 14.2565C1164.83 10.7986 1156.71 7.94371 1148.41 5.71654C1141.49 4.19986 1134.43 3.45897 1127.35 3.50762C1121.62 3.47895 1115.9 4.02174 1110.27 5.12792L1101.44 22.2071L1087.45 49.8878L1086.71 51.3598C1086.74 51.3859 1086.77 51.4236 1086.8 51.4496L1082.59 59.7524C1085.25 63.6424 1088.92 66.7444 1093.19 68.7337C1096.67 70.5741 1100.38 71.9127 1104.23 72.7094C1110.46 73.9737 1116.75 74.8588 1123.08 75.3596L1136.33 76.8325C1145.31 77.7159 1151.2 78.7467 1154.15 79.9239C1158.27 81.6907 1160.48 84.3409 1160.48 88.3166C1160.43 91.04 1159.5 93.6742 1157.83 95.8258C1155.9 98.2358 1153.43 100.153 1150.61 101.421C1145.17 104.071 1138.69 105.397 1131.03 105.397C1127.43 105.389 1123.83 105.09 1120.28 104.502C1116.53 103.871 1112.83 102.973 1109.21 101.815C1109.07 101.771 1108.94 101.761 1108.8 101.716C1106.3 100.968 1103.84 100.083 1101.44 99.0646C1099.81 105.952 1096.58 112.358 1092.01 117.764C1100.85 121.299 1110.12 123.648 1119.58 124.75C1119.62 124.756 1119.67 124.766 1119.71 124.771C1123.27 125.188 1126.86 125.405 1130.44 125.421C1138.7 125.426 1146.92 124.337 1154.88 122.181C1165.04 119.383 1172.55 114.967 1177.41 109.224C1182.6 103.043 1185.42 95.2117 1185.36 87.1384C1185.38 82.0357 1184.22 76.9978 1181.98 72.4146C1179.84 67.988 1176.65 64.1479 1172.7 61.2253Z" fill="white"/>
<path d="M121.471 30.2904C116.344 21.3398 108.433 14.3087 98.9432 10.2663C91.1401 7.02663 80.0972 5.40723 65.6683 5.40723H0V8.20478C1.63056 8.56952 3.14703 9.3279 4.417 10.4137C5.26226 11.5602 5.6791 12.9666 5.5951 14.3885V114.069C5.65344 115.533 5.24052 116.978 4.417 118.191C3.14703 119.277 1.63056 120.035 0 120.4V123.197H65.6683C69.7904 123.197 73.7661 123.05 77.2997 122.755L89.0785 98.0193C88.3774 98.5607 87.6397 99.0529 86.8705 99.4922C81.5693 102.29 73.9135 103.762 63.6067 103.762H31.2143V24.8427H63.6067C71.4098 24.8427 77.7409 25.5787 82.4527 27.1981C87.0859 28.7827 91.2405 31.5188 94.5262 35.1495C100.416 41.9218 103.508 51.64 103.508 64.3022C103.532 65.6292 103.483 66.9564 103.361 68.2779L121.471 30.2904Z" fill="white"/>
<path d="M435.529 117.455C433.615 115.983 430.67 112.743 426.4 107.737L381.051 53.112L421.099 20.867L427.725 15.4193C431.848 12.0331 434.351 10.1189 435.234 9.53028C436.581 8.87247 438.021 8.42542 439.504 8.20475V5.40723H391.358V8.20478C394.744 8.79341 396.363 9.97156 396.363 11.591C396.363 12.7691 395.332 14.0946 393.124 16.0079L385.91 21.8978L344.536 55.6148L318.916 76.5232V78.4374L344.536 113.921V82.5595L362.351 68.1305L396.953 110.682C399.75 114.216 401.075 116.278 401.075 117.161C401.075 118.633 399.603 119.811 396.51 120.4V123.197H442.596V120.4C440.029 120.031 437.598 119.018 435.529 117.455Z" fill="white"/>
<path d="M329.37 118.044C327.456 116.424 324.511 112.743 320.536 107.002L297.567 74.4618C318.916 71.2221 329.665 60.0328 329.665 40.7447C329.73 35.3214 328.625 29.9477 326.425 24.9902C324.357 19.9802 320.814 15.7179 316.266 12.7692C312.064 10.0436 307.358 8.19096 302.426 7.32151C295.376 6.11466 288.228 5.57248 281.077 5.70212H207.458V8.49966C209.059 8.82455 210.537 9.58916 211.728 10.7077C212.664 11.8707 213.136 13.3398 213.052 14.8307V57.5291L238.672 109.799V75.4926H270.18L294.033 110.093C296.684 114.069 298.009 116.572 298.009 117.602C298.009 119.222 296.537 120.252 293.592 120.842V123.492H336.144V120.842C333.645 120.656 331.272 119.675 329.37 118.044ZM290.794 55.6149C286.682 55.9825 282.553 56.1301 278.426 56.0571H238.672V25.1376H278.426C284.316 25.1376 288.585 25.2841 290.794 25.7262C293.104 26.0311 295.345 26.7283 297.42 27.7877C301.837 30.1432 304.046 34.413 304.046 40.5973C304.046 46.7811 301.837 51.0509 297.42 53.4069C295.334 54.4705 293.101 55.2148 290.794 55.6149ZM244.267 121.136V120.842L244.12 120.695L244.267 121.136Z" fill="white"/>
<path d="M185.912 93.1334H132.387L124.464 109.698C123.548 111.376 122.99 113.227 122.825 115.133C122.825 117.663 124.747 119.418 128.591 120.395V123.156H89.6392V120.395C91.5861 120.102 93.4105 119.265 94.9018 117.98C96.1096 116.829 97.49 114.586 99.0429 111.251L142.351 20.7512C143.52 18.6223 144.226 16.2703 144.422 13.8494C144.422 11.2038 142.754 9.30576 139.418 8.15544V5.39478H181.174V8.15548C177.78 9.13323 176.084 10.8299 176.084 13.2455C176.175 15.2459 176.737 17.1966 177.723 18.9395L222.584 109.698C224.482 113.551 226.15 116.182 227.588 117.591C229.191 119.083 231.205 120.059 233.368 120.395V123.156H190.017V120.395C193.827 119.763 195.73 117.98 195.725 115.046C195.522 113.164 194.935 111.344 194 109.698L185.912 93.1334ZM178.514 77.0005L159.419 35.0508L140.015 77.0005H178.514Z" fill="white"/>
</svg>
