<svg id="Слой_1" data-name="Слой 1" xmlns="http://www.w3.org/2000/svg" viewBox="0 0 1921 255"><defs><style>.cls-1{fill:#383838;}</style></defs><title>logo-bl</title><path d="M1302.7391,9.85838V3.23311h-62.9099V9.85838c8.02907,1.40775,10.09848,4.14085,10.09848,12.17387V166.87933h-.7447L1170.71057,26.83579c-2.73177-4.80354-6.20824-11.42881-6.20824-12.83656,0-2.7331,2.06941-3.72687,8.3605-4.14085V3.23311h-76.07157V9.85838c6.20823,1.40775,8.69143,4.14085,8.69143,12.17387V180.71016l22.51545,65.75682h29.55125V239.9241c-7.28436-1.49064-9.76756-4.22375-9.76756-11.84279V68.24435h1.07563L1236.35223,221.125c2.48369,4.47194,5.96016,11.09721,5.96016,12.505,0,4.47245-4.22168,5.54911-9.02285,6.29418V246.467h67.71107V239.9241c-6.29059-1.49064-8.36-2.8155-8.36-11.84279V22.03225C1292.64061,13.99923,1294.71,11.26613,1302.7391,9.85838Z"/><path d="M752.19288,64.43458c0-15.652,10.42991-28.48911,36.83562-28.48911,38.5736,0,58.68872,16.31524,58.68872,27.08136,0,2.816-.33143,6.54237-.33143,8.03353l6.29109,2.7326,34.35243-57.30931-3.89076-2.15333c-2.73176,3.47818-5.54588,5.54861-10.347,5.54861-4.88353,0-12.1679-4.47195-25.081-9.60657C835.87974,5.30354,817.83454.5,793.16732.5c-60.4267,0-87.16384,34.03772-87.16384,70.56036,0,86.12951,145.85256,52.42288,145.85256,103.52141,0,21.53225-14.23781,35.77656-56.61931,35.77656-16.55529,0-37.66318-4.47195-51.07292-11.92569v42.73392a159.6096,159.6096,0,0,0,48.67259,7.78483c71.93275,0,105.29139-38.59306,105.29139-76.44005C898.12779,77.27164,752.19288,113.37979,752.19288,64.43458Z"/><path d="M1105.31748,231.14551c-.24858-.74507-.5795-1.49065-.82807-2.31862L1038.434,36.60815c-4.13882-12.50547-5.54588-15.98365-5.54588-18.79965,0-4.803,2.81411-7.53614,9.76756-7.95012V3.23311H965.5908V9.85838c8.27764.99376,10.01562,2.7326,10.01562,5.5486,0,3.89267-1.3242,7.28795-4.13882,15.65256L904.088,228.82689c-1.40756,3.80927-3.8079,10.68323-9.76807,11.09721V246.467h61.17192V239.9241c-8.02907-.414-10.42992-4.55484-10.42992-8.77859a23.39434,23.39434,0,0,1,2.06942-8.28171l12.9131-38.26148h82.94216l14.98252,42.40233c.99327,3.14709,1.73848,5.63151,1.73848,8.03353,0,3.06419-2.48319,4.14085-8.3605,4.88592V246.467h62.827V239.9241C1109.4563,239.26193,1107.63495,237.52259,1105.31748,231.14551Zm-134.1808-78.84157L1000.936,54.99381h1.07613l30.54453,97.31013Z"/><path d="M249.16026,230.81442v-66.3366c-23.7568-16.97741-38.40789-45.79761-38.40789-80.498,0-34.7833,14.73395-63.68639,38.5736-80.7467H178.30364V9.85838c5.215,1.40775,7.28437,3.14709,7.28437,7.28794,0,1.07667-1.40706,5.21752-2.48319,7.95013L130.37626,143.69064H129.383L78.31006,25.842c-1.40756-3.47818-2.81462-8.03352-2.81462-9.02729,0-3.14709,2.06941-5.21752,6.95344-6.95635V3.23311H.5V9.85838c6.622.414,9.35378,3.14709,9.35378,9.44127V230.81442c0,5.96259-3.47647,8.6957-9.35378,9.10968V246.467H63.32754V239.9241c-8.27764-.414-11.09226-3.14709-11.09226-9.10968V63.35792h1.07613L124.499,225.5969h6.87059l74.33309-162.239h.74521v167.4565c0,5.96259-2.81463,8.6957-11.09227,9.10968V246.467h64.897V239.9241C252.3058,239.51012,249.16026,236.777,249.16026,230.81442Z"/><path d="M447.74138.5c-30.876,0-55.957,10.51794-74.41645,28.15752l-.16521.0829c-12.996,12.58837-22.68067,28.65491-28.72369,47.123A152.92516,152.92516,0,0,0,340.29721,91.102l1.82134,2.23572,40.31209,50.43586L375.312,153.95988l-1.65563,2.402-6.37395,9.02679-8.60857-1.90464c-.08286.0829-.16571.1658-.24857.1658a85.36711,85.36711,0,0,1-14.48588,8.94389c14.32067,45.21833,50.24536,76.35765,103.802,76.35765,43.1262,0,74.99544-20.45609,93.20585-52.25759V53.17157C522.81967,21.20428,490.95044.5,447.74138.5Zm0,209.85833c-41.30587,0-64.566-30.55954-64.566-85.46684,0-54.9078,23.26017-85.46734,64.566-85.46734,40.97393,0,64.64838,30.55954,64.64838,85.46734C512.38976,179.79879,488.71531,210.35833,447.74138,210.35833ZM557.50252,105.84315v38.17908a169.85258,169.85258,0,0,0,0-38.17908Z"/><path class="cls-1" d="M361.81939,144.43621l-1.73849,2.40152a18.59539,18.59539,0,0,0-3.97311-.49688c-3.55933,0-7.781,4.96882-16.30722,9.68946-7.86387,4.47245-19.2042,8.6133-36.918,8.6133-21.85311,0-40.47781-8.11642-53.72234-21.94674-13.82353-14.2443-21.8526-34.7004-21.8526-58.71706,0-23.93427,8.02907-44.39037,21.8526-58.71757C262.40479,11.43192,281.02949,3.23311,302.8826,3.23311a67.69488,67.69488,0,0,1,31.703,7.53613c7.86386,3.72688,13.24454,7.53614,16.88672,7.53614a9.70617,9.70617,0,0,0,6.78773-2.15282l2.48319,1.32485-21.8531,36.605-3.55933-1.90463a14.6221,14.6221,0,0,0,.91042-4.058c0-12.58837-19.12134-19.87631-32.53108-19.87631-24.502,0-46.27226,19.37943-46.27226,58.63467,0,29.06889,13.98924,53.00316,47.59646,53.00316,12.33411,0,31.3726-7.53664,31.3726-18.30276a8.397,8.397,0,0,0-1.07614-4.55485l1.82084-1.15956,1.24185-.74557Z"/><path d="M727.60852,196.44511V254.5h-6.53967c-1.40705-7.03925-5.215-8.033-15.64436-8.033H544.58941V239.9241c10.51277-1.49064,12.91311-4.22375,12.91311-11.84279V144.02223a169.85258,169.85258,0,0,0,0-38.17908V22.03225c0-8.033-2.40034-10.76612-13.90638-12.17387V3.23311h75.74065V9.85838c-13.244,1.40775-15.64487,4.14085-15.64487,12.17387V207.54283H705.42449a37.40156,37.40156,0,0,0,4.46975-.1658c7.11865-.49688,10.01613-2.7331,11.17461-10.93192Z"/><path d="M558.57865,124.89149a160.59525,160.59525,0,0,1-1.07613,19.13074V105.84315A160.18994,160.18994,0,0,1,558.57865,124.89149Z"/><path class="cls-1" d="M1357.123,3.48028a184.94326,184.94326,0,0,1,29.21426-2.0866c18.77829,0,31.74445,3.878,40.984,11.63,9.68824,7.90564,15.64993,19.83487,15.64993,36.9806,0,17.89384-6.11123,31.31523-15.64993,39.96493-9.98329,9.09452-25.9323,13.71659-45.45833,13.71659a199.55308,199.55308,0,0,1-24.74-1.34255Zm18.33369,85.14637a68.61569,68.61569,0,0,0,10.13284.44482c23.84673.14962,38.00522-12.97253,38.00522-38.46872.14955-22.22071-12.66706-34.894-35.62055-34.894a58.755,58.755,0,0,0-12.51751,1.0433Z"/><path class="cls-1" d="M1532.95831,58.05548h-37.85568V87.58335h42.32593v15.05913h-60.65962V2.13774h58.42449V17.20092h-40.0908V43.146h37.85568Z"/><path class="cls-1" d="M1570.93523,82.662a50.72428,50.72428,0,0,0,24.29133,6.40944c11.77382,0,18.33369-5.51575,18.33369-13.71659,0-7.6064-5.06844-12.07885-17.885-16.70092-16.54317-5.96461-27.12465-14.76393-27.12465-29.22862,0-16.40168,13.70985-28.92534,35.471-28.92534,10.88058,0,18.92784,2.38585,24.14583,5.06689l-4.4743,14.76393a42.5278,42.5278,0,0,0-19.97062-4.77169c-11.62427,0-16.69271,6.26386-16.69271,12.07885,0,7.752,5.81213,11.33074,19.22693,16.55129,17.4364,6.559,25.9323,15.35837,25.9323,29.82307,0,16.10647-12.22245,30.1223-38.15476,30.1223-10.58148,0-21.61161-2.98433-27.12465-6.26385Z"/><path class="cls-1" d="M1684.9226,2.13774V102.64248h-18.33369V2.13774Z"/><path class="cls-1" d="M1804.28963,98.02041a99.4683,99.4683,0,0,1-32.34263,5.66537c-16.99181,0-29.80841-4.32283-39.34711-13.42139-8.94454-8.50008-14.15849-21.7678-14.00894-36.9806,0-31.76005,22.65035-52.18935,55.89027-52.18935,12.368,0,22.0562,2.53547,26.676,4.77169l-4.02161,14.76393c-5.51708-2.38584-12.22246-4.32687-22.80394-4.32687-21.46206,0-36.51783,12.67733-36.51783,36.08692,0,22.81515,14.013,36.38616,34.87685,36.38616,6.55987,0,11.47473-.89773,13.8594-2.09065V61.63425h-17.7355V47.1736h35.475Z"/><path class="cls-1" d="M1840.91255,102.64248V2.13774h20.86791l25.93231,43.09483a277.26883,277.26883,0,0,1,17.14135,33.70108h.295c-1.19233-13.42139-1.63693-26.39392-1.63693-41.75229V2.13774H1920.5V102.64248h-18.92784l-26.2314-44.13814A350.59728,350.59728,0,0,1,1857.30617,23.76l-.4446.14962c.74369,12.97253.89324,26.24429.89324,42.79559v35.9373Z"/></svg>